<?xml version="1.0" standalone="no"?>
<!DOCTYPE svg PUBLIC "-//W3C//DTD SVG 20010904//EN"
 "http://www.w3.org/TR/2001/REC-SVG-20010904/DTD/svg10.dtd">
<svg version="1.0" xmlns="http://www.w3.org/2000/svg"
 width="512.000000pt" height="512.000000pt" viewBox="0 0 512.000000 512.000000"
 preserveAspectRatio="xMidYMid meet">

<g transform="translate(0.000000,512.000000) scale(0.100000,-0.100000)"
fill="#000000" stroke="none">
<path d="M290 1707 c-47 -15 -103 -74 -118 -123 -17 -58 -17 -910 0 -968 7
-22 28 -56 48 -76 20 -20 54 -41 76 -48 58 -17 910 -17 968 0 52 16 108 72
124 124 17 58 17 910 0 968 -16 52 -72 108 -124 124 -55 16 -922 15 -974 -1z
m970 -82 c60 -31 60 -30 60 -525 0 -495 0 -494 -60 -525 -44 -23 -916 -23
-960 0 -60 31 -60 30 -60 525 0 492 0 493 58 524 41 23 919 23 962 1z"/>
<path d="M3696 1705 c-49 -17 -93 -59 -117 -110 -17 -37 -19 -73 -19 -500 0
-425 2 -463 19 -500 22 -48 44 -69 94 -90 31 -13 107 -15 518 -15 541 0 528
-2 577 73 l27 40 3 306 3 306 -40 -40 -41 -39 0 -259 0 -259 -30 -29 -29 -30
-481 3 -482 3 -29 33 -29 32 0 461 c0 414 2 464 17 489 36 62 31 61 545 58
l467 -3 29 -28 c28 -27 29 -27 60 -11 18 8 32 19 32 23 0 4 -15 21 -32 39 -66
63 -61 62 -565 62 -363 -1 -466 -4 -497 -15z"/>
</g>
</svg>
