<svg id="svg" version="1.1" xmlns="http://www.w3.org/2000/svg" xmlns:xlink="http://www.w3.org/1999/xlink" width="400" height="400" viewBox="0, 0, 400,400"><g id="svgg"><path id="path0" d="M56.400 0.942 C 56.400 1.524,56.220 2.000,56.000 2.000 C 55.780 2.000,55.600 2.518,55.600 3.151 C 55.600 3.784,55.330 4.526,55.000 4.800 C 54.670 5.074,54.400 5.726,54.400 6.249 C 54.400 6.772,54.253 7.200,54.072 7.200 C 53.892 7.200,53.496 8.111,53.193 9.225 C 52.890 10.339,52.497 11.340,52.321 11.449 C 52.144 11.558,52.000 12.076,52.000 12.600 C 52.000 13.124,51.820 13.664,51.600 13.800 C 51.380 13.936,51.200 14.577,51.200 15.224 C 51.200 15.871,51.020 16.400,50.800 16.400 C 50.580 16.400,50.400 16.749,50.400 17.176 C 50.400 17.603,50.220 18.064,50.000 18.200 C 49.780 18.336,49.600 18.887,49.600 19.424 C 49.600 19.961,49.420 20.400,49.200 20.400 C 48.980 20.400,48.800 20.940,48.800 21.600 C 48.800 22.260,48.620 22.800,48.400 22.800 C 48.180 22.800,48.000 23.430,48.000 24.200 C 48.000 24.970,47.820 25.600,47.600 25.600 C 47.380 25.600,47.200 25.960,47.200 26.400 C 47.200 26.840,47.020 27.200,46.800 27.200 C 46.580 27.200,46.400 27.740,46.400 28.400 C 46.400 29.060,46.220 29.600,46.000 29.600 C 45.780 29.600,45.600 30.140,45.600 30.800 C 45.600 31.460,45.432 32.000,45.227 32.000 C 45.022 32.000,44.740 32.405,44.602 32.900 C 44.331 33.866,43.724 35.372,43.153 36.495 C 42.959 36.877,42.800 37.552,42.800 37.995 C 42.800 38.438,42.620 38.800,42.400 38.800 C 42.180 38.800,42.000 39.340,42.000 40.000 C 42.000 40.660,41.820 41.200,41.600 41.200 C 41.380 41.200,41.200 41.740,41.200 42.400 C 41.200 43.060,41.020 43.600,40.800 43.600 C 40.580 43.600,40.400 44.050,40.400 44.600 C 40.400 45.150,40.220 45.600,40.000 45.600 C 39.780 45.600,39.600 46.140,39.600 46.800 C 39.600 47.460,39.420 48.000,39.200 48.000 C 38.980 48.000,38.800 48.540,38.800 49.200 C 38.800 49.860,38.620 50.400,38.400 50.400 C 38.180 50.400,38.000 50.839,38.000 51.376 C 38.000 51.913,37.820 52.464,37.600 52.600 C 37.380 52.736,37.200 53.287,37.200 53.824 C 37.200 54.361,37.020 54.800,36.800 54.800 C 36.580 54.800,36.400 55.340,36.400 56.000 C 36.400 56.660,36.220 57.200,36.000 57.200 C 35.780 57.200,35.600 57.721,35.600 58.357 C 35.600 59.017,35.342 59.613,35.000 59.745 C 34.670 59.871,34.400 60.330,34.400 60.764 C 34.400 61.198,34.220 61.664,34.000 61.800 C 33.780 61.936,33.600 62.487,33.600 63.024 C 33.600 63.561,33.420 64.000,33.200 64.000 C 32.980 64.000,32.800 64.540,32.800 65.200 C 32.800 65.860,32.620 66.400,32.400 66.400 C 32.180 66.400,32.000 66.940,32.000 67.600 C 32.000 68.260,31.820 68.800,31.600 68.800 C 31.380 68.800,31.200 69.162,31.200 69.605 C 31.200 70.048,31.020 70.768,30.800 71.205 C 30.580 71.642,30.220 72.358,30.000 72.795 C 29.780 73.232,29.600 74.042,29.600 74.595 C 29.600 75.148,29.420 75.600,29.200 75.600 C 28.980 75.600,28.800 76.140,28.800 76.800 C 28.800 77.460,28.620 78.000,28.400 78.000 C 28.180 78.000,28.000 78.349,28.000 78.776 C 28.000 79.203,27.820 79.664,27.600 79.800 C 27.380 79.936,27.200 80.487,27.200 81.024 C 27.200 81.561,27.020 82.000,26.800 82.000 C 26.580 82.000,26.400 82.529,26.400 83.176 C 26.400 83.823,26.220 84.464,26.000 84.600 C 25.780 84.736,25.600 85.357,25.600 85.981 C 25.600 86.604,25.365 87.205,25.078 87.315 C 24.791 87.425,24.310 88.299,24.008 89.257 C 23.707 90.216,23.312 91.171,23.130 91.380 C 22.949 91.589,22.800 92.163,22.800 92.656 C 22.800 93.149,22.620 93.664,22.400 93.800 C 22.180 93.936,22.000 94.577,22.000 95.224 C 22.000 95.871,21.820 96.400,21.600 96.400 C 21.380 96.400,21.200 96.749,21.200 97.176 C 21.200 97.603,21.020 98.064,20.800 98.200 C 20.580 98.336,20.400 98.887,20.400 99.424 C 20.400 99.961,20.220 100.400,20.000 100.400 C 19.780 100.400,19.600 100.940,19.600 101.600 C 19.600 102.260,19.420 102.800,19.200 102.800 C 18.980 102.800,18.800 103.329,18.800 103.976 C 18.800 104.623,18.620 105.264,18.400 105.400 C 18.180 105.536,18.000 105.997,18.000 106.424 C 18.000 106.851,17.820 107.200,17.600 107.200 C 17.380 107.200,17.200 107.740,17.200 108.400 C 17.200 109.060,17.020 109.600,16.800 109.600 C 16.580 109.600,16.400 110.140,16.400 110.800 C 16.400 111.460,16.220 112.000,16.000 112.000 C 15.780 112.000,15.600 112.428,15.600 112.951 C 15.600 113.474,15.364 114.098,15.076 114.337 C 14.788 114.576,14.306 115.678,14.004 116.786 C 13.702 117.894,13.308 118.800,13.128 118.800 C 12.947 118.800,12.800 119.340,12.800 120.000 C 12.800 120.660,12.620 121.200,12.400 121.200 C 12.180 121.200,12.000 121.740,12.000 122.400 C 12.000 123.060,11.820 123.600,11.600 123.600 C 11.380 123.600,11.200 124.050,11.200 124.600 C 11.200 125.150,11.020 125.600,10.800 125.600 C 10.580 125.600,10.400 126.140,10.400 126.800 C 10.400 127.460,10.220 128.000,10.000 128.000 C 9.780 128.000,9.600 128.540,9.600 129.200 C 9.600 129.860,9.420 130.400,9.200 130.400 C 8.980 130.400,8.800 130.839,8.800 131.376 C 8.800 131.913,8.620 132.464,8.400 132.600 C 8.180 132.736,8.000 133.287,8.000 133.824 C 8.000 134.361,7.820 134.800,7.600 134.800 C 7.380 134.800,7.200 135.340,7.200 136.000 C 7.200 136.660,7.020 137.200,6.800 137.200 C 6.580 137.200,6.400 137.740,6.400 138.400 C 6.400 139.060,6.220 139.600,6.000 139.600 C 5.780 139.600,5.600 139.973,5.600 140.429 C 5.600 140.884,5.330 141.527,5.000 141.857 C 4.670 142.187,4.400 142.794,4.400 143.205 C 4.400 143.616,4.220 144.064,4.000 144.200 C 3.780 144.336,3.600 144.887,3.600 145.424 C 3.600 145.961,3.420 146.400,3.200 146.400 C 2.980 146.400,2.800 146.940,2.800 147.600 C 2.800 148.260,2.620 148.800,2.400 148.800 C 2.180 148.800,2.000 149.149,2.000 149.576 C 2.000 150.003,1.820 150.464,1.600 150.600 C 1.380 150.736,1.200 151.251,1.200 151.744 C 1.200 152.237,1.021 152.819,0.802 153.038 C 0.583 153.257,0.286 154.823,0.143 156.518 L -0.117 159.600 0.941 159.600 C 1.524 159.600,2.000 159.780,2.000 160.000 C 2.000 160.220,2.630 160.400,3.400 160.400 C 4.170 160.400,4.800 160.580,4.800 160.800 C 4.800 161.020,5.340 161.200,6.000 161.200 C 6.660 161.200,7.200 161.380,7.200 161.600 C 7.200 161.820,7.740 162.000,8.400 162.000 C 9.060 162.000,9.600 162.180,9.600 162.400 C 9.600 162.620,10.140 162.800,10.800 162.800 C 11.460 162.800,12.000 162.980,12.000 163.200 C 12.000 163.420,12.529 163.600,13.176 163.600 C 13.823 163.600,14.464 163.780,14.600 164.000 C 14.736 164.220,15.299 164.400,15.852 164.400 C 16.405 164.400,17.127 164.670,17.457 165.000 C 17.787 165.330,18.404 165.600,18.829 165.600 C 19.253 165.600,19.600 165.780,19.600 166.000 C 19.600 166.220,20.140 166.400,20.800 166.400 C 21.460 166.400,22.000 166.580,22.000 166.800 C 22.000 167.020,22.291 167.200,22.647 167.200 C 23.364 167.200,28.201 168.689,29.295 169.246 C 29.677 169.441,30.352 169.600,30.795 169.600 C 31.238 169.600,31.600 169.780,31.600 170.000 C 31.600 170.220,32.129 170.400,32.776 170.400 C 33.423 170.400,34.064 170.580,34.200 170.800 C 34.336 171.020,34.851 171.200,35.344 171.200 C 35.837 171.200,36.456 171.416,36.720 171.680 C 37.301 172.261,37.357 173.600,36.800 173.600 C 36.580 173.600,36.400 174.050,36.400 174.600 C 36.400 175.150,36.220 175.600,36.000 175.600 C 35.780 175.600,35.600 175.861,35.600 176.180 C 35.600 176.499,35.361 176.904,35.069 177.080 C 34.777 177.256,34.102 178.210,33.569 179.200 C 33.036 180.190,32.465 181.060,32.300 181.133 C 32.135 181.207,32.000 181.612,32.000 182.033 C 32.000 182.455,31.820 182.800,31.600 182.800 C 31.380 182.800,31.200 183.149,31.200 183.576 C 31.200 184.003,31.020 184.464,30.800 184.600 C 30.580 184.736,30.400 185.197,30.400 185.624 C 30.400 186.051,30.220 186.400,30.000 186.400 C 29.780 186.400,29.600 186.636,29.600 186.925 C 29.600 187.213,29.240 187.836,28.800 188.308 C 28.360 188.780,28.000 189.444,28.000 189.783 C 28.000 190.122,27.820 190.400,27.600 190.400 C 27.380 190.400,27.200 190.634,27.200 190.920 C 27.200 191.656,26.259 193.593,25.900 193.597 C 25.735 193.599,25.600 194.031,25.600 194.557 C 25.600 195.084,25.330 195.618,25.000 195.745 C 24.670 195.871,24.400 196.251,24.400 196.587 C 24.400 196.924,24.220 197.200,24.000 197.200 C 23.780 197.200,23.600 197.560,23.600 198.000 C 23.600 198.440,23.450 198.800,23.267 198.800 C 22.864 198.800,20.400 203.489,20.400 204.256 C 20.400 204.555,20.220 204.800,20.000 204.800 C 19.780 204.800,19.600 205.160,19.600 205.600 C 19.600 206.040,19.420 206.400,19.200 206.400 C 18.980 206.400,18.800 206.760,18.800 207.200 C 18.800 207.640,18.620 208.000,18.400 208.000 C 18.180 208.000,18.000 208.236,18.000 208.525 C 18.000 208.813,17.640 209.436,17.200 209.908 C 16.760 210.380,16.400 211.044,16.400 211.383 C 16.400 211.722,16.220 212.000,16.000 212.000 C 15.780 212.000,15.600 212.360,15.600 212.800 C 15.600 213.240,15.440 213.600,15.243 213.600 C 15.047 213.600,14.774 214.050,14.636 214.600 C 14.498 215.150,14.208 215.600,13.992 215.600 C 13.777 215.600,13.600 215.960,13.600 216.400 C 13.600 216.840,13.420 217.200,13.200 217.200 C 12.980 217.200,12.800 217.560,12.800 218.000 C 12.800 218.440,12.641 218.800,12.447 218.800 C 12.252 218.800,11.990 219.115,11.864 219.500 C 11.738 219.885,11.177 220.970,10.618 221.911 C 10.058 222.852,9.600 223.887,9.600 224.211 C 9.600 224.535,9.420 224.800,9.200 224.800 C 8.980 224.800,8.800 225.160,8.800 225.600 C 8.800 226.040,8.620 226.400,8.400 226.400 C 8.180 226.400,8.000 226.760,8.000 227.200 C 8.000 227.640,7.820 228.000,7.600 228.000 C 7.380 228.000,7.200 228.360,7.200 228.800 C 7.200 229.240,7.020 229.600,6.800 229.600 C 6.580 229.600,6.400 229.870,6.400 230.200 C 6.400 230.530,6.220 230.800,6.000 230.800 C 5.780 230.800,5.600 230.984,5.600 231.208 C 5.600 231.432,5.150 232.329,4.600 233.200 C 4.050 234.071,3.600 235.020,3.600 235.309 C 3.600 235.867,6.595 238.800,7.165 238.800 C 7.351 238.800,8.245 239.520,9.152 240.400 C 10.059 241.280,10.998 242.000,11.240 242.000 C 11.481 242.000,12.183 242.540,12.800 243.200 C 13.417 243.860,14.036 244.400,14.177 244.400 C 14.476 244.400,14.947 244.786,17.472 247.100 C 18.492 248.035,19.496 248.800,19.703 248.800 C 19.910 248.800,20.583 249.340,21.200 250.000 C 21.817 250.660,22.519 251.200,22.760 251.200 C 23.002 251.200,23.200 251.380,23.200 251.600 C 23.200 251.820,23.470 252.000,23.800 252.000 C 24.130 252.000,24.400 252.180,24.400 252.400 C 24.400 252.620,24.630 252.800,24.912 252.800 C 25.193 252.800,25.683 253.160,26.000 253.600 C 26.317 254.040,26.731 254.400,26.920 254.400 C 27.109 254.400,28.073 255.210,29.063 256.200 C 30.053 257.190,31.037 258.000,31.250 258.000 C 31.462 258.000,32.056 258.405,32.568 258.900 C 34.123 260.403,35.187 261.200,35.636 261.200 C 35.871 261.200,36.754 261.920,37.600 262.800 C 38.446 263.680,39.421 264.400,39.769 264.400 C 40.116 264.400,40.400 264.593,40.400 264.829 C 40.400 265.402,41.023 265.980,43.385 267.597 C 44.476 268.344,45.898 269.460,46.544 270.078 C 47.190 270.695,47.890 271.200,48.099 271.200 C 48.308 271.200,48.983 271.740,49.600 272.400 C 50.217 273.060,50.889 273.600,51.095 273.600 C 51.300 273.600,52.290 274.410,53.294 275.400 C 54.298 276.390,55.296 277.200,55.512 277.200 C 55.727 277.200,56.615 277.875,57.484 278.700 C 58.353 279.525,59.287 280.249,59.559 280.309 C 61.037 280.635,62.546 283.216,61.600 283.800 C 61.380 283.936,61.200 284.577,61.200 285.224 C 61.200 285.871,61.020 286.400,60.800 286.400 C 60.580 286.400,60.400 287.019,60.400 287.776 C 60.400 288.533,60.220 289.264,60.000 289.400 C 59.780 289.536,59.600 290.166,59.600 290.800 C 59.600 291.434,59.420 292.064,59.200 292.200 C 58.980 292.336,58.800 293.146,58.800 294.000 C 58.800 294.854,58.620 295.664,58.400 295.800 C 58.180 295.936,58.000 296.407,58.000 296.847 C 58.000 297.287,57.862 297.562,57.693 297.458 C 57.525 297.354,57.393 298.139,57.400 299.203 C 57.408 300.301,57.238 301.108,57.007 301.069 C 56.783 301.031,56.653 301.248,56.717 301.550 C 56.781 301.853,56.521 302.445,56.139 302.867 C 55.499 303.574,55.498 303.614,56.122 303.374 C 56.495 303.231,56.800 303.299,56.800 303.524 C 56.800 303.749,56.638 303.993,56.439 304.067 C 56.241 304.140,56.319 304.420,56.612 304.690 C 57.180 305.212,58.303 302.814,57.841 302.066 C 57.722 301.873,58.069 301.801,58.612 301.904 C 59.186 302.014,59.600 301.906,59.600 301.647 C 59.600 301.401,59.920 301.200,60.312 301.200 C 60.703 301.200,61.283 300.840,61.600 300.400 C 61.917 299.960,62.547 299.600,63.000 299.600 C 63.453 299.600,64.083 299.240,64.400 298.800 C 64.717 298.360,65.297 298.000,65.688 298.000 C 66.080 298.000,66.400 297.820,66.400 297.600 C 66.400 297.380,66.720 297.200,67.112 297.200 C 67.503 297.200,68.083 296.840,68.400 296.400 C 68.717 295.960,69.297 295.600,69.688 295.600 C 70.080 295.600,70.400 295.420,70.400 295.200 C 70.400 294.980,70.683 294.800,71.029 294.800 C 71.747 294.800,72.800 293.866,72.800 293.229 C 72.800 292.993,73.250 292.800,73.800 292.800 C 74.350 292.800,74.800 292.620,74.800 292.400 C 74.800 292.180,75.160 292.000,75.600 292.000 C 76.040 292.000,76.400 291.812,76.400 291.582 C 76.400 291.353,76.709 291.218,77.087 291.282 C 78.297 291.489,78.305 290.832,78.353 183.101 L 78.400 77.202 157.671 77.101 C 228.123 77.011,236.879 76.933,236.366 76.400 C 236.048 76.070,234.801 74.633,233.594 73.208 C 232.387 71.782,230.597 69.748,229.615 68.688 C 227.163 66.040,226.367 64.739,226.651 63.840 C 226.832 63.269,226.284 62.508,224.446 60.781 C 223.101 59.517,222.000 58.305,222.000 58.089 C 222.000 57.873,221.280 56.955,220.400 56.048 C 219.520 55.141,218.800 54.347,218.800 54.284 C 218.800 54.083,215.494 50.437,212.900 47.778 C 211.525 46.368,210.400 45.034,210.400 44.812 C 210.400 44.045,205.537 38.800,204.826 38.800 C 204.592 38.800,204.400 38.524,204.400 38.187 C 204.400 37.849,203.815 36.960,203.100 36.210 C 200.189 33.158,198.800 31.571,198.796 31.293 C 198.790 30.914,195.369 27.200,195.025 27.200 C 194.603 27.200,192.800 25.274,192.800 24.823 C 192.800 24.329,192.121 23.481,189.200 20.328 C 187.990 19.023,186.280 17.156,185.400 16.179 C 183.992 14.618,183.598 14.404,182.124 14.402 C 181.202 14.401,180.336 14.220,180.200 14.000 C 180.064 13.780,178.523 13.600,176.776 13.600 C 174.925 13.600,173.600 13.433,173.600 13.200 C 173.600 12.967,172.275 12.800,170.424 12.800 C 168.677 12.800,167.136 12.620,167.000 12.400 C 166.864 12.180,165.334 12.000,163.600 12.000 C 161.866 12.000,160.336 11.820,160.200 11.600 C 160.064 11.380,158.534 11.200,156.800 11.200 C 155.066 11.200,153.536 11.020,153.400 10.800 C 153.264 10.580,151.633 10.400,149.776 10.400 C 147.792 10.400,146.400 10.235,146.400 10.000 C 146.400 9.765,145.000 9.600,143.000 9.600 C 141.000 9.600,139.600 9.435,139.600 9.200 C 139.600 8.965,138.200 8.800,136.200 8.800 C 134.200 8.800,132.800 8.635,132.800 8.400 C 132.800 8.167,131.475 8.000,129.624 8.000 C 127.877 8.000,126.336 7.820,126.200 7.600 C 126.064 7.380,124.523 7.200,122.776 7.200 C 120.925 7.200,119.600 7.033,119.600 6.800 C 119.600 6.565,118.200 6.400,116.200 6.400 C 114.200 6.400,112.800 6.235,112.800 6.000 C 112.800 5.765,111.411 5.600,109.433 5.600 C 107.118 5.600,106.015 5.446,105.902 5.106 C 105.794 4.783,104.576 4.563,102.369 4.468 C 100.516 4.389,98.829 4.161,98.620 3.962 C 98.411 3.763,96.836 3.600,95.120 3.600 C 93.307 3.600,92.000 3.432,92.000 3.200 C 92.000 2.965,90.600 2.800,88.600 2.800 C 86.600 2.800,85.200 2.635,85.200 2.400 C 85.200 2.167,83.875 2.000,82.024 2.000 C 80.277 2.000,78.736 1.820,78.600 1.600 C 78.464 1.380,76.938 1.200,75.210 1.200 C 73.481 1.200,72.007 1.033,71.933 0.828 C 71.860 0.624,68.335 0.327,64.100 0.170 L 56.400 -0.117 56.400 0.942 " stroke="none" fill="#e6435c" fill-rule="evenodd"></path><path id="path1" d="M274.800 6.745 C 274.800 7.290,272.739 9.209,272.387 8.992 C 272.213 8.884,272.116 9.111,272.173 9.497 C 272.231 9.890,271.383 11.131,270.238 12.327 C 269.117 13.498,268.130 14.653,268.045 14.893 C 267.883 15.348,266.450 17.058,264.900 18.643 C 264.405 19.149,264.000 19.729,264.000 19.930 C 264.000 20.431,259.900 24.624,259.527 24.505 C 259.363 24.452,259.320 24.648,259.432 24.940 C 259.544 25.232,258.908 26.198,258.018 27.088 C 257.128 27.978,256.400 28.907,256.400 29.153 C 256.400 29.758,255.722 29.721,255.437 29.100 C 255.311 28.825,255.306 28.999,255.427 29.488 C 255.594 30.165,255.214 30.807,253.823 32.198 C 252.820 33.201,252.000 34.191,252.000 34.398 C 252.000 34.605,251.100 35.703,250.000 36.839 C 248.900 37.974,248.000 39.028,248.000 39.181 C 248.000 39.333,247.100 40.422,246.000 41.600 C 244.900 42.778,244.000 43.889,244.000 44.069 C 244.000 44.248,243.055 45.401,241.900 46.629 C 240.745 47.857,239.620 49.193,239.400 49.598 C 239.180 50.002,238.235 51.147,237.300 52.143 C 236.365 53.138,235.600 54.066,235.600 54.205 C 235.600 54.344,235.366 54.692,235.079 54.978 C 234.793 55.265,233.938 56.277,233.179 57.227 C 232.421 58.177,230.945 59.883,229.900 61.016 C 228.855 62.150,228.000 63.285,228.000 63.539 C 228.000 63.792,227.820 64.000,227.600 64.000 C 226.651 64.000,227.835 65.808,231.135 69.400 C 231.943 70.280,233.411 71.990,234.395 73.200 C 235.380 74.410,236.531 75.715,236.954 76.100 C 237.676 76.758,240.354 76.800,281.247 76.800 C 322.295 76.800,324.792 76.840,325.132 77.500 C 325.330 77.885,325.596 88.915,325.724 102.011 C 325.852 115.107,326.076 126.132,326.221 126.511 C 326.501 127.239,328.000 127.483,328.000 126.800 C 328.000 126.580,328.540 126.400,329.200 126.400 C 329.860 126.400,330.400 126.220,330.400 126.000 C 330.400 125.780,330.940 125.600,331.600 125.600 C 332.260 125.600,332.800 125.420,332.800 125.200 C 332.800 124.980,333.430 124.800,334.200 124.800 C 334.970 124.800,335.600 124.620,335.600 124.400 C 335.600 124.180,336.140 124.000,336.800 124.000 C 337.600 124.000,338.000 123.800,338.000 123.400 C 338.000 123.000,338.400 122.800,339.200 122.800 C 339.860 122.800,340.400 122.620,340.400 122.400 C 340.400 122.180,340.940 122.000,341.600 122.000 C 342.260 122.000,342.800 121.820,342.800 121.600 C 342.800 121.380,343.430 121.200,344.200 121.200 C 344.970 121.200,345.600 121.020,345.600 120.800 C 345.600 120.580,346.140 120.400,346.800 120.400 C 347.460 120.400,348.000 120.220,348.000 120.000 C 348.000 119.780,348.540 119.600,349.200 119.600 C 349.860 119.600,350.400 119.420,350.400 119.200 C 350.400 118.980,350.940 118.800,351.600 118.800 C 352.260 118.800,352.800 118.620,352.800 118.400 C 352.800 118.180,353.430 118.000,354.200 118.000 C 354.970 118.000,355.600 117.820,355.600 117.600 C 355.600 117.380,356.140 117.200,356.800 117.200 C 357.460 117.200,358.000 117.020,358.000 116.800 C 358.000 116.580,358.540 116.400,359.200 116.400 C 359.860 116.400,360.400 116.220,360.400 116.000 C 360.400 115.780,360.940 115.600,361.600 115.600 C 362.260 115.600,362.800 115.420,362.800 115.200 C 362.800 114.980,363.430 114.800,364.200 114.800 C 364.970 114.800,365.600 114.620,365.600 114.400 C 365.600 114.180,366.140 114.000,366.800 114.000 C 367.600 114.000,368.000 113.800,368.000 113.400 C 368.000 113.000,368.400 112.800,369.200 112.800 C 369.860 112.800,370.400 112.620,370.400 112.400 C 370.400 112.180,370.940 112.000,371.600 112.000 C 372.260 112.000,372.800 111.820,372.800 111.600 C 372.800 111.380,373.430 111.200,374.200 111.200 C 374.970 111.200,375.600 111.020,375.600 110.800 C 375.600 110.580,376.140 110.400,376.800 110.400 C 377.460 110.400,378.000 110.220,378.000 110.000 C 378.000 109.780,378.540 109.600,379.200 109.600 C 379.860 109.600,380.400 109.420,380.400 109.200 C 380.400 108.980,380.940 108.800,381.600 108.800 C 382.260 108.800,382.800 108.620,382.800 108.400 C 382.800 108.180,383.430 108.000,384.200 108.000 C 384.970 108.000,385.600 107.820,385.600 107.600 C 385.600 107.380,386.140 107.200,386.800 107.200 C 387.460 107.200,388.000 107.020,388.000 106.800 C 388.000 106.580,388.540 106.400,389.200 106.400 C 389.860 106.400,390.400 106.220,390.400 106.000 C 390.400 105.780,390.940 105.600,391.600 105.600 C 392.260 105.600,392.800 105.439,392.800 105.242 C 392.800 104.481,396.172 104.508,396.723 105.273 C 397.010 105.673,397.483 106.000,397.774 106.000 C 398.707 106.000,399.298 107.041,398.714 107.658 C 398.431 107.956,397.392 109.280,396.403 110.600 C 395.415 111.920,394.324 113.270,393.978 113.600 C 393.632 113.930,392.575 115.190,391.630 116.400 C 389.651 118.933,363.385 150.615,359.459 155.204 C 358.986 155.756,357.792 157.196,356.805 158.404 C 355.819 159.612,354.919 160.690,354.805 160.800 C 354.692 160.910,352.801 163.160,350.602 165.800 C 348.403 168.440,346.414 170.802,346.181 171.049 C 345.948 171.297,345.138 172.264,344.379 173.199 C 342.964 174.942,338.581 180.212,337.055 182.004 C 336.585 182.556,335.392 183.996,334.405 185.204 C 333.419 186.412,332.519 187.490,332.405 187.600 C 332.292 187.710,331.300 188.879,330.200 190.199 C 329.100 191.518,327.750 193.107,327.200 193.730 C 325.647 195.490,325.682 194.633,325.640 231.634 C 325.618 250.903,325.480 279.658,325.334 295.534 L 325.068 324.400 279.334 324.400 C 238.948 324.400,233.600 324.470,233.600 325.000 C 233.600 325.330,233.420 325.600,233.200 325.600 C 232.980 325.600,232.800 325.960,232.800 326.400 C 232.800 326.840,232.620 327.200,232.400 327.200 C 232.180 327.200,232.000 327.560,232.000 328.000 C 232.000 328.440,231.820 328.800,231.600 328.800 C 231.380 328.800,231.200 329.120,231.200 329.512 C 231.200 329.903,230.840 330.483,230.400 330.800 C 229.960 331.117,229.600 331.697,229.600 332.088 C 229.600 332.480,229.420 332.800,229.200 332.800 C 228.980 332.800,228.800 333.160,228.800 333.600 C 228.800 334.040,228.620 334.400,228.400 334.400 C 228.180 334.400,228.000 334.850,228.000 335.400 C 228.000 335.950,227.820 336.400,227.600 336.400 C 227.380 336.400,227.200 336.720,227.200 337.112 C 227.200 337.503,226.840 338.083,226.400 338.400 C 225.960 338.717,225.600 339.297,225.600 339.688 C 225.600 340.080,225.330 340.400,225.000 340.400 C 224.667 340.400,224.400 340.756,224.400 341.200 C 224.400 341.640,224.220 342.000,224.000 342.000 C 223.780 342.000,223.600 342.360,223.600 342.800 C 223.600 343.240,223.420 343.600,223.200 343.600 C 222.980 343.600,222.800 344.050,222.800 344.600 C 222.800 345.150,222.620 345.600,222.400 345.600 C 222.180 345.600,222.000 345.920,222.000 346.312 C 222.000 346.703,221.640 347.283,221.200 347.600 C 220.760 347.917,220.400 348.497,220.400 348.888 C 220.400 349.280,220.220 349.600,220.000 349.600 C 219.780 349.600,219.600 349.960,219.600 350.400 C 219.600 350.840,219.420 351.200,219.200 351.200 C 218.980 351.200,218.800 351.560,218.800 352.000 C 218.800 352.440,218.620 352.800,218.400 352.800 C 218.180 352.800,218.000 353.160,218.000 353.600 C 218.000 354.040,217.820 354.400,217.600 354.400 C 217.380 354.400,217.200 354.670,217.200 355.000 C 217.200 355.330,217.020 355.600,216.800 355.600 C 216.580 355.600,216.400 355.960,216.400 356.400 C 216.400 356.840,216.220 357.200,216.000 357.200 C 215.780 357.200,215.600 357.560,215.600 358.000 C 215.600 358.444,215.333 358.800,215.000 358.800 C 214.667 358.800,214.400 359.156,214.400 359.600 C 214.400 360.040,214.220 360.400,214.000 360.400 C 213.780 360.400,213.600 360.720,213.600 361.112 C 213.600 361.503,213.240 362.083,212.800 362.400 C 212.360 362.717,212.000 363.297,212.000 363.688 C 212.000 364.080,211.820 364.400,211.600 364.400 C 211.380 364.400,211.200 364.850,211.200 365.400 C 211.200 365.950,211.020 366.400,210.800 366.400 C 210.580 366.400,210.400 366.760,210.400 367.200 C 210.400 367.640,210.220 368.000,210.000 368.000 C 209.780 368.000,209.600 368.320,209.600 368.712 C 209.600 369.103,209.240 369.683,208.800 370.000 C 208.360 370.317,208.000 370.897,208.000 371.288 C 208.000 371.680,207.820 372.000,207.600 372.000 C 207.380 372.000,207.200 372.360,207.200 372.800 C 207.200 373.240,207.020 373.600,206.800 373.600 C 206.580 373.600,206.400 374.050,206.400 374.600 C 206.400 375.150,206.220 375.600,206.000 375.600 C 205.780 375.600,205.600 375.930,205.600 376.333 C 205.600 377.354,205.173 377.675,204.527 377.140 C 204.227 376.890,203.865 376.802,203.724 376.943 C 203.582 377.084,203.671 377.200,203.921 377.200 C 204.171 377.200,204.276 377.459,204.154 377.775 C 204.033 378.091,203.680 378.252,203.369 378.133 C 203.059 378.014,202.882 377.791,202.976 377.638 C 203.071 377.485,202.800 377.143,202.374 376.877 C 201.948 376.611,201.600 376.547,201.600 376.735 C 201.600 377.191,202.729 378.156,204.200 378.957 C 205.925 379.896,206.847 380.504,207.754 381.300 C 208.192 381.685,208.787 382.000,209.075 382.000 C 209.364 382.000,209.600 382.180,209.600 382.400 C 209.600 382.620,209.920 382.800,210.312 382.800 C 210.703 382.800,211.283 383.160,211.600 383.600 C 211.917 384.040,212.482 384.400,212.855 384.400 C 213.228 384.400,213.596 384.588,213.673 384.818 C 213.749 385.048,214.194 385.264,214.662 385.300 C 215.233 385.343,215.438 385.557,215.287 385.951 C 215.125 386.373,215.250 386.466,215.731 386.282 C 216.169 386.114,216.400 386.228,216.400 386.613 C 216.400 386.936,216.590 387.200,216.822 387.200 C 217.054 387.200,218.304 387.920,219.600 388.800 C 220.896 389.680,222.118 390.400,222.316 390.400 C 222.514 390.400,223.002 390.760,223.400 391.200 C 223.798 391.640,224.416 392.000,224.774 392.000 C 225.131 392.000,225.683 392.360,226.000 392.800 C 226.317 393.240,226.831 393.600,227.141 393.600 C 227.452 393.600,227.997 393.917,228.353 394.306 C 228.709 394.694,229.687 395.369,230.527 395.806 C 231.367 396.242,232.394 396.915,232.810 397.300 C 233.226 397.685,233.720 398.000,233.908 398.000 C 234.096 398.000,234.684 398.405,235.216 398.900 C 236.350 399.957,243.172 400.284,243.501 399.298 C 243.592 399.024,244.001 398.800,244.410 398.800 C 244.818 398.800,245.264 398.620,245.400 398.400 C 245.536 398.180,245.991 398.000,246.411 398.000 C 246.832 398.000,247.766 397.677,248.488 397.281 C 249.210 396.886,250.610 396.309,251.600 395.999 C 252.590 395.689,253.544 395.202,253.720 394.917 C 253.896 394.633,254.470 394.400,254.996 394.400 C 255.522 394.400,256.064 394.220,256.200 394.000 C 256.336 393.780,256.797 393.600,257.224 393.600 C 257.651 393.600,258.000 393.420,258.000 393.200 C 258.000 392.980,258.540 392.800,259.200 392.800 C 259.860 392.800,260.400 392.620,260.400 392.400 C 260.400 392.180,260.760 392.000,261.200 392.000 C 261.640 392.000,262.000 391.820,262.000 391.600 C 262.000 391.380,262.540 391.200,263.200 391.200 C 263.860 391.200,264.400 391.020,264.400 390.800 C 264.400 390.580,264.850 390.400,265.400 390.400 C 265.950 390.400,266.400 390.220,266.400 390.000 C 266.400 389.780,266.940 389.600,267.600 389.600 C 268.260 389.600,268.800 389.420,268.800 389.200 C 268.800 388.980,269.160 388.800,269.600 388.800 C 270.040 388.800,270.400 388.620,270.400 388.400 C 270.400 388.180,270.940 388.000,271.600 388.000 C 272.260 388.000,272.800 387.820,272.800 387.600 C 272.800 387.380,273.160 387.200,273.600 387.200 C 274.040 387.200,274.400 387.020,274.400 386.800 C 274.400 386.580,274.754 386.400,275.186 386.400 C 276.153 386.400,278.800 385.174,278.800 384.726 C 278.800 384.547,279.239 384.400,279.776 384.400 C 280.313 384.400,280.864 384.220,281.000 384.000 C 281.136 383.780,281.597 383.600,282.024 383.600 C 282.451 383.600,282.800 383.420,282.800 383.200 C 282.800 382.980,283.340 382.800,284.000 382.800 C 284.660 382.800,285.200 382.620,285.200 382.400 C 285.200 382.180,285.650 382.000,286.200 382.000 C 286.750 382.000,287.200 381.820,287.200 381.600 C 287.200 381.380,287.751 381.200,288.424 381.200 C 289.137 381.200,289.544 381.033,289.400 380.800 C 289.260 380.573,289.596 380.400,290.176 380.400 C 290.739 380.400,291.200 380.220,291.200 380.000 C 291.200 379.780,291.562 379.600,292.005 379.600 C 292.448 379.600,293.168 379.420,293.605 379.200 C 294.042 378.980,294.758 378.620,295.195 378.400 C 295.632 378.180,296.341 378.000,296.771 378.000 C 297.201 378.000,297.664 377.820,297.800 377.600 C 297.936 377.380,298.397 377.200,298.824 377.200 C 299.251 377.200,299.600 377.053,299.600 376.872 C 299.600 376.692,300.500 376.300,301.600 376.000 C 302.714 375.697,303.600 375.222,303.600 374.928 C 303.600 374.608,304.073 374.400,304.800 374.400 C 305.460 374.400,306.000 374.220,306.000 374.000 C 306.000 373.780,306.450 373.600,307.000 373.600 C 307.550 373.600,308.000 373.420,308.000 373.200 C 308.000 372.980,308.439 372.800,308.976 372.800 C 309.513 372.800,310.064 372.620,310.200 372.400 C 310.336 372.180,310.797 372.000,311.224 372.000 C 311.651 372.000,312.000 371.820,312.000 371.600 C 312.000 371.380,312.540 371.200,313.200 371.200 C 313.860 371.200,314.400 371.020,314.400 370.800 C 314.400 370.580,314.749 370.400,315.176 370.400 C 315.603 370.400,316.064 370.220,316.200 370.000 C 316.336 369.780,316.876 369.600,317.400 369.600 C 317.924 369.600,318.464 369.420,318.600 369.200 C 318.736 368.980,319.197 368.800,319.624 368.800 C 320.051 368.800,320.400 368.620,320.400 368.400 C 320.400 368.180,320.679 368.000,321.019 368.000 C 321.360 368.000,322.384 367.640,323.294 367.200 C 324.205 366.760,325.266 366.400,325.652 366.400 C 326.037 366.400,326.464 366.220,326.600 366.000 C 326.736 365.780,327.202 365.600,327.636 365.600 C 328.070 365.600,328.529 365.330,328.655 365.000 C 328.787 364.658,329.383 364.400,330.043 364.400 C 330.679 364.400,331.200 364.220,331.200 364.000 C 331.200 363.780,331.560 363.600,332.000 363.600 C 332.440 363.600,332.800 363.420,332.800 363.200 C 332.800 362.980,333.340 362.800,334.000 362.800 C 334.660 362.800,335.200 362.620,335.200 362.400 C 335.200 362.180,335.650 362.000,336.200 362.000 C 336.750 362.000,337.200 361.820,337.200 361.600 C 337.200 361.380,337.639 361.200,338.176 361.200 C 338.713 361.200,339.264 361.020,339.400 360.800 C 339.536 360.580,339.997 360.400,340.424 360.400 C 340.851 360.400,341.200 360.220,341.200 360.000 C 341.200 359.780,341.472 359.600,341.805 359.600 C 342.138 359.600,342.768 359.420,343.205 359.200 C 343.642 358.980,344.358 358.620,344.795 358.400 C 345.232 358.180,345.952 358.000,346.395 358.000 C 346.838 358.000,347.200 357.853,347.200 357.672 C 347.200 357.492,348.100 357.100,349.200 356.800 C 350.300 356.500,351.200 356.108,351.200 355.928 C 351.200 355.747,351.656 355.600,352.213 355.600 C 352.769 355.600,353.329 355.330,353.455 355.000 C 353.582 354.670,354.106 354.400,354.619 354.400 C 355.133 354.400,355.664 354.220,355.800 354.000 C 355.936 353.780,356.487 353.600,357.024 353.600 C 357.561 353.600,358.000 353.420,358.000 353.200 C 358.000 352.980,358.349 352.800,358.776 352.800 C 359.203 352.800,359.664 352.620,359.800 352.400 C 359.936 352.180,360.487 352.000,361.024 352.000 C 361.561 352.000,362.000 351.820,362.000 351.600 C 362.000 351.380,362.349 351.200,362.776 351.200 C 363.203 351.200,363.664 351.020,363.800 350.800 C 363.936 350.580,364.476 350.400,365.000 350.400 C 365.524 350.400,366.064 350.220,366.200 350.000 C 366.336 349.780,366.797 349.600,367.224 349.600 C 367.651 349.600,368.000 349.420,368.000 349.200 C 368.000 348.980,368.540 348.800,369.200 348.800 C 369.860 348.800,370.400 348.620,370.400 348.400 C 370.400 348.180,370.760 348.000,371.200 348.000 C 371.640 348.000,372.000 347.820,372.000 347.600 C 372.000 347.380,372.540 347.200,373.200 347.200 C 373.860 347.200,374.400 347.020,374.400 346.800 C 374.400 346.580,374.749 346.400,375.176 346.400 C 375.603 346.400,376.064 346.220,376.200 346.000 C 376.336 345.780,376.784 345.600,377.195 345.600 C 377.606 345.600,378.213 345.330,378.543 345.000 C 378.873 344.670,379.426 344.400,379.771 344.400 C 380.117 344.400,380.400 344.220,380.400 344.000 C 380.400 343.780,380.940 343.600,381.600 343.600 C 382.260 343.600,382.800 343.420,382.800 343.200 C 382.800 342.980,383.160 342.800,383.600 342.800 C 384.040 342.800,384.400 342.620,384.400 342.400 C 384.400 342.180,384.929 342.000,385.576 342.000 C 386.223 342.000,386.864 341.820,387.000 341.600 C 387.136 341.380,387.597 341.200,388.024 341.200 C 388.451 341.200,388.800 341.020,388.800 340.800 C 388.800 340.580,389.340 340.400,390.000 340.400 C 390.660 340.400,391.200 340.220,391.200 340.000 C 391.200 339.780,391.483 339.600,391.829 339.600 C 393.521 339.600,393.600 339.021,393.600 326.652 C 393.600 319.214,393.748 314.756,394.000 314.600 C 394.253 314.444,394.400 309.674,394.400 301.610 C 394.400 291.771,394.514 288.829,394.900 288.700 C 395.278 288.575,395.476 285.279,395.712 275.167 C 395.884 267.815,396.194 256.130,396.401 249.200 C 396.608 242.270,396.873 232.640,396.989 227.800 C 397.106 222.960,397.297 217.110,397.414 214.800 C 397.776 207.671,398.400 185.253,398.616 171.617 C 398.729 164.476,398.977 158.536,399.167 158.417 C 399.357 158.298,399.646 146.487,399.809 132.171 C 400.116 105.147,400.067 104.092,398.528 104.683 C 398.142 104.831,397.970 104.772,398.113 104.541 C 398.248 104.323,397.628 103.528,396.735 102.773 C 395.843 102.018,394.876 101.175,394.585 100.900 C 394.295 100.625,393.869 100.400,393.638 100.400 C 393.407 100.400,392.275 99.500,391.122 98.400 C 389.969 97.300,388.839 96.398,388.613 96.396 C 388.386 96.394,387.767 95.844,387.237 95.174 C 386.708 94.504,385.720 93.669,385.042 93.318 C 384.365 92.968,383.331 92.168,382.745 91.541 C 382.158 90.913,381.471 90.400,381.216 90.400 C 380.961 90.400,380.881 90.192,381.038 89.938 C 381.205 89.668,381.149 89.584,380.902 89.737 C 380.671 89.880,379.624 89.188,378.577 88.199 C 377.530 87.209,376.431 86.400,376.136 86.400 C 375.841 86.400,375.600 86.220,375.600 86.000 C 375.600 85.780,375.330 85.600,375.000 85.600 C 374.670 85.600,374.400 85.412,374.400 85.182 C 374.400 84.650,372.736 83.038,372.024 82.881 C 371.728 82.815,371.016 82.268,370.443 81.665 C 369.869 81.062,368.770 80.135,368.000 79.604 C 367.230 79.072,366.309 78.314,365.953 77.919 C 365.597 77.524,365.142 77.200,364.941 77.200 C 364.741 77.200,364.317 76.840,364.000 76.400 C 363.683 75.960,363.103 75.600,362.712 75.600 C 362.320 75.600,362.000 75.412,362.000 75.182 C 362.000 74.639,360.161 72.800,359.618 72.800 C 359.388 72.800,359.200 72.620,359.200 72.400 C 359.200 72.180,358.994 72.000,358.743 72.000 C 358.492 72.000,357.809 71.505,357.226 70.900 C 356.643 70.295,355.633 69.530,354.983 69.200 C 354.332 68.870,353.139 67.925,352.331 67.100 C 351.524 66.275,350.579 65.600,350.231 65.600 C 349.884 65.600,349.600 65.412,349.600 65.182 C 349.600 64.500,345.769 61.200,344.977 61.200 C 344.836 61.200,344.217 60.660,343.600 60.000 C 342.983 59.340,342.303 58.800,342.088 58.800 C 341.873 58.800,340.955 58.080,340.048 57.200 C 339.141 56.320,338.119 55.600,337.776 55.600 C 337.433 55.600,337.264 55.420,337.400 55.200 C 337.536 54.980,337.467 54.800,337.247 54.800 C 337.027 54.800,336.026 53.991,335.024 53.002 C 334.021 52.014,333.200 51.396,333.200 51.629 C 333.200 51.862,332.312 51.141,331.226 50.027 C 330.140 48.912,329.036 48.000,328.773 48.000 C 328.509 48.000,328.003 47.685,327.647 47.299 C 326.646 46.215,325.384 45.296,325.765 45.930 C 326.029 46.368,325.939 46.369,325.242 45.933 C 324.779 45.644,324.400 45.247,324.400 45.050 C 324.400 44.591,322.327 42.801,321.795 42.800 C 321.572 42.800,321.212 42.415,320.995 41.945 C 320.778 41.475,320.451 41.127,320.270 41.172 C 320.088 41.216,319.617 40.881,319.223 40.426 C 318.829 39.972,318.212 39.600,317.853 39.600 C 317.494 39.600,317.200 39.420,317.200 39.200 C 317.200 38.980,316.930 38.800,316.600 38.800 C 316.051 38.800,315.816 38.312,315.963 37.470 C 315.994 37.289,315.850 37.246,315.642 37.374 C 315.434 37.502,314.948 37.291,314.561 36.904 C 314.174 36.517,313.780 36.271,313.687 36.358 C 313.323 36.696,312.084 35.446,312.279 34.938 C 312.393 34.642,312.331 34.400,312.143 34.400 C 311.954 34.399,311.277 33.949,310.638 33.400 C 309.348 32.290,309.012 32.151,309.435 32.900 C 309.591 33.175,309.331 33.003,308.859 32.517 C 308.386 32.031,308.000 31.435,308.000 31.193 C 308.000 30.951,307.853 30.844,307.673 30.955 C 307.493 31.066,307.093 30.807,306.785 30.379 C 306.476 29.950,305.885 29.600,305.472 29.600 C 305.059 29.600,304.217 29.060,303.600 28.400 C 302.983 27.740,302.146 27.197,301.740 27.194 C 301.116 27.189,301.094 27.127,301.600 26.800 C 302.108 26.472,302.088 26.411,301.471 26.406 C 300.516 26.398,299.470 25.333,299.836 24.741 C 300.015 24.452,299.949 24.384,299.662 24.562 C 299.408 24.719,299.001 24.724,298.757 24.574 C 298.449 24.383,298.479 24.196,298.857 23.956 C 299.280 23.688,299.245 23.611,298.700 23.606 C 298.315 23.603,298.000 23.401,298.000 23.157 C 298.000 22.909,297.708 22.826,297.335 22.970 C 296.582 23.259,294.400 21.409,294.400 20.482 C 294.400 20.138,294.160 20.006,293.791 20.148 C 293.412 20.293,292.563 19.781,291.543 18.791 C 290.641 17.916,289.655 17.200,289.352 17.200 C 289.048 17.200,288.800 17.020,288.800 16.800 C 288.800 16.580,288.602 16.400,288.360 16.400 C 288.119 16.400,287.417 15.860,286.800 15.200 C 286.183 14.540,285.481 14.000,285.240 14.000 C 284.998 14.000,284.800 13.719,284.800 13.376 C 284.800 13.033,284.613 12.868,284.384 13.010 C 284.156 13.151,283.378 12.622,282.656 11.833 C 281.934 11.045,281.223 10.400,281.076 10.400 C 280.772 10.400,279.538 9.424,278.168 8.100 C 277.656 7.605,277.048 7.200,276.818 7.200 C 276.588 7.200,276.400 7.020,276.400 6.800 C 276.400 6.580,276.040 6.400,275.600 6.400 C 275.160 6.400,274.800 6.555,274.800 6.745 " stroke="none" fill="#117cec" fill-rule="evenodd"></path><path id="path2" d="M117.070 109.464 C 116.921 109.612,116.800 113.753,116.800 118.667 L 116.800 127.600 123.300 127.605 C 126.875 127.608,130.205 127.719,130.700 127.852 L 131.600 128.093 131.600 160.447 L 131.600 192.800 124.200 192.800 L 116.800 192.800 116.800 202.003 L 116.800 211.206 142.100 211.103 L 167.400 211.000 167.508 201.900 L 167.615 192.800 160.888 192.800 C 156.188 192.800,154.015 192.655,153.680 192.320 C 152.855 191.495,153.000 129.057,153.829 128.229 C 154.349 127.708,155.589 127.600,161.036 127.600 L 167.615 127.600 167.508 118.500 L 167.400 109.400 142.370 109.297 C 128.603 109.240,117.218 109.315,117.070 109.464 M230.912 109.522 C 230.536 109.761,230.399 118.052,230.312 145.816 L 230.200 181.800 229.287 184.059 C 224.805 195.143,209.476 194.706,199.311 183.205 L 198.423 182.200 196.511 184.200 C 195.460 185.301,193.880 187.020,193.000 188.021 C 192.120 189.021,189.960 191.427,188.200 193.366 C 183.943 198.056,184.042 197.520,186.899 200.403 C 199.819 213.444,220.091 216.716,236.410 208.394 C 242.139 205.473,250.800 195.224,250.800 191.365 C 250.800 191.048,250.964 190.477,251.165 190.095 C 252.814 186.953,253.200 177.875,253.200 142.221 C 253.200 112.922,253.137 109.661,252.567 109.443 C 251.635 109.085,231.484 109.159,230.912 109.522 M101.691 285.500 L 101.800 293.000 147.500 293.102 L 193.200 293.203 193.200 285.602 L 193.200 278.000 147.391 278.000 L 101.582 278.000 101.691 285.500 " stroke="none" fill="#fafafa" fill-rule="evenodd"></path><path id="path3" d="M273.231 7.264 C 272.334 8.179,271.600 9.060,271.600 9.222 C 271.600 9.384,270.825 10.337,269.877 11.340 C 268.930 12.343,267.895 13.664,267.577 14.277 C 267.260 14.889,266.280 16.142,265.400 17.061 C 263.912 18.615,262.277 20.470,259.811 23.400 C 259.255 24.060,258.801 24.749,258.800 24.931 C 258.800 25.114,258.080 25.954,257.200 26.800 C 255.691 28.250,255.112 29.600,256.000 29.600 C 256.220 29.600,256.400 29.399,256.400 29.153 C 256.400 28.907,257.128 27.978,258.018 27.088 C 258.908 26.198,259.544 25.232,259.432 24.940 C 259.320 24.648,259.363 24.452,259.527 24.505 C 259.900 24.624,264.000 20.431,264.000 19.930 C 264.000 19.729,264.405 19.149,264.900 18.643 C 266.450 17.058,267.883 15.348,268.045 14.893 C 268.130 14.653,269.138 13.476,270.284 12.279 C 271.430 11.081,272.290 10.023,272.195 9.928 C 272.100 9.833,272.647 9.166,273.411 8.445 C 274.175 7.725,274.800 6.970,274.800 6.768 C 274.800 6.565,275.160 6.400,275.600 6.400 C 276.040 6.400,276.400 6.580,276.400 6.800 C 276.400 7.020,276.588 7.200,276.818 7.200 C 277.048 7.200,277.656 7.605,278.168 8.100 C 279.583 9.467,280.776 10.400,281.108 10.400 C 281.273 10.400,281.946 11.026,282.604 11.791 C 283.822 13.208,284.400 13.528,284.400 12.787 C 284.400 12.249,281.751 9.600,281.214 9.600 C 280.987 9.600,280.059 8.880,279.152 8.000 C 278.245 7.120,277.255 6.400,276.952 6.400 C 276.648 6.400,276.400 6.220,276.400 6.000 C 276.400 5.062,274.741 5.723,273.231 7.264 M284.800 13.400 C 284.800 13.730,284.998 14.000,285.240 14.000 C 285.481 14.000,286.183 14.540,286.800 15.200 C 287.417 15.860,288.119 16.400,288.360 16.400 C 288.602 16.400,288.800 16.580,288.800 16.800 C 288.800 17.020,289.048 17.200,289.352 17.200 C 289.655 17.200,290.661 17.935,291.586 18.833 C 292.511 19.731,293.367 20.366,293.489 20.245 C 293.743 19.990,290.046 16.400,289.530 16.400 C 289.342 16.400,288.355 15.590,287.336 14.600 C 285.377 12.696,284.800 12.423,284.800 13.400 M294.400 20.674 C 294.400 21.074,296.483 23.200,296.875 23.200 C 297.678 23.200,297.065 22.119,295.795 21.296 C 295.028 20.799,294.400 20.519,294.400 20.674 M299.573 25.234 C 300.283 25.913,300.959 26.374,301.075 26.259 C 301.365 25.968,299.347 24.000,298.759 24.000 C 298.496 24.000,298.863 24.555,299.573 25.234 M302.800 27.418 C 302.800 27.840,304.769 29.600,305.241 29.600 C 305.504 29.600,305.154 29.060,304.463 28.400 C 303.241 27.232,302.800 26.972,302.800 27.418 M253.987 30.370 C 253.431 30.937,252.359 32.300,251.606 33.400 C 250.854 34.500,249.554 36.061,248.719 36.869 C 247.883 37.676,247.200 38.538,247.200 38.784 C 247.200 39.030,246.300 40.117,245.200 41.200 C 244.100 42.283,243.200 43.340,243.200 43.548 C 243.200 43.757,242.210 44.958,241.000 46.218 C 239.790 47.477,238.800 48.677,238.800 48.885 C 238.800 49.093,238.080 49.954,237.200 50.800 C 236.320 51.646,235.600 52.440,235.600 52.566 C 235.600 52.810,234.318 54.379,232.991 55.759 C 232.547 56.221,231.739 57.230,231.198 58.000 C 230.656 58.770,229.628 59.988,228.914 60.706 C 225.825 63.811,225.899 64.681,229.600 68.673 C 231.152 70.348,232.710 72.143,236.218 76.300 L 236.978 77.200 280.846 77.200 C 320.479 77.200,324.738 77.261,324.957 77.833 C 325.091 78.181,325.243 125.206,325.295 182.333 C 325.364 257.345,325.447 273.569,325.595 240.732 L 325.800 195.264 326.800 194.136 C 327.350 193.515,327.894 192.915,328.009 192.803 C 328.124 192.692,329.114 191.520,330.209 190.200 C 331.304 188.880,332.292 187.710,332.405 187.600 C 332.519 187.490,333.419 186.412,334.405 185.204 C 335.392 183.996,336.585 182.556,337.055 182.004 C 338.581 180.212,342.964 174.942,344.379 173.199 C 345.138 172.264,345.948 171.297,346.181 171.049 C 346.414 170.802,348.403 168.440,350.602 165.800 C 352.801 163.160,354.692 160.910,354.805 160.800 C 354.919 160.690,355.819 159.612,356.805 158.404 C 357.792 157.196,358.986 155.756,359.459 155.204 C 363.385 150.615,389.651 118.933,391.630 116.400 C 392.575 115.190,393.632 113.930,393.978 113.600 C 394.324 113.270,395.415 111.920,396.403 110.600 C 397.392 109.280,398.431 107.956,398.714 107.658 C 399.298 107.041,398.707 106.000,397.774 106.000 C 397.483 106.000,397.010 105.673,396.723 105.273 C 396.172 104.508,392.800 104.481,392.800 105.242 C 392.800 105.439,392.260 105.600,391.600 105.600 C 390.940 105.600,390.400 105.780,390.400 106.000 C 390.400 106.220,389.860 106.400,389.200 106.400 C 388.540 106.400,388.000 106.580,388.000 106.800 C 388.000 107.020,387.460 107.200,386.800 107.200 C 386.140 107.200,385.600 107.380,385.600 107.600 C 385.600 107.820,384.970 108.000,384.200 108.000 C 383.430 108.000,382.800 108.180,382.800 108.400 C 382.800 108.620,382.260 108.800,381.600 108.800 C 380.940 108.800,380.400 108.980,380.400 109.200 C 380.400 109.420,379.860 109.600,379.200 109.600 C 378.540 109.600,378.000 109.780,378.000 110.000 C 378.000 110.220,377.460 110.400,376.800 110.400 C 376.140 110.400,375.600 110.580,375.600 110.800 C 375.600 111.020,374.970 111.200,374.200 111.200 C 373.430 111.200,372.800 111.380,372.800 111.600 C 372.800 111.820,372.260 112.000,371.600 112.000 C 370.940 112.000,370.400 112.180,370.400 112.400 C 370.400 112.620,369.860 112.800,369.200 112.800 C 368.400 112.800,368.000 113.000,368.000 113.400 C 368.000 113.800,367.600 114.000,366.800 114.000 C 366.140 114.000,365.600 114.180,365.600 114.400 C 365.600 114.620,364.970 114.800,364.200 114.800 C 363.430 114.800,362.800 114.980,362.800 115.200 C 362.800 115.420,362.260 115.600,361.600 115.600 C 360.940 115.600,360.400 115.780,360.400 116.000 C 360.400 116.220,359.860 116.400,359.200 116.400 C 358.540 116.400,358.000 116.580,358.000 116.800 C 358.000 117.020,357.460 117.200,356.800 117.200 C 356.140 117.200,355.600 117.380,355.600 117.600 C 355.600 117.820,354.970 118.000,354.200 118.000 C 353.430 118.000,352.800 118.180,352.800 118.400 C 352.800 118.620,352.260 118.800,351.600 118.800 C 350.940 118.800,350.400 118.980,350.400 119.200 C 350.400 119.420,349.860 119.600,349.200 119.600 C 348.540 119.600,348.000 119.780,348.000 120.000 C 348.000 120.220,347.460 120.400,346.800 120.400 C 346.140 120.400,345.600 120.580,345.600 120.800 C 345.600 121.020,344.970 121.200,344.200 121.200 C 343.430 121.200,342.800 121.380,342.800 121.600 C 342.800 121.820,342.260 122.000,341.600 122.000 C 340.940 122.000,340.400 122.180,340.400 122.400 C 340.400 122.620,339.860 122.800,339.200 122.800 C 338.400 122.800,338.000 123.000,338.000 123.400 C 338.000 123.800,337.600 124.000,336.800 124.000 C 336.140 124.000,335.600 124.180,335.600 124.400 C 335.600 124.620,334.970 124.800,334.200 124.800 C 333.430 124.800,332.800 124.980,332.800 125.200 C 332.800 125.420,332.260 125.600,331.600 125.600 C 330.940 125.600,330.400 125.780,330.400 126.000 C 330.400 126.220,329.860 126.400,329.200 126.400 C 328.540 126.400,328.000 126.580,328.000 126.800 C 328.000 127.483,326.501 127.239,326.221 126.511 C 326.076 126.132,325.852 115.107,325.724 102.011 C 325.596 88.915,325.330 77.885,325.132 77.500 C 324.792 76.840,322.295 76.800,281.247 76.800 C 240.354 76.800,237.676 76.758,236.954 76.100 C 236.531 75.715,235.380 74.410,234.395 73.200 C 233.411 71.990,231.943 70.280,231.135 69.400 C 227.835 65.808,226.651 64.000,227.600 64.000 C 227.820 64.000,228.000 63.792,228.000 63.539 C 228.000 63.285,228.855 62.150,229.900 61.016 C 230.945 59.883,232.421 58.177,233.179 57.227 C 233.938 56.277,234.793 55.265,235.079 54.978 C 235.366 54.692,235.600 54.344,235.600 54.205 C 235.600 54.066,236.365 53.138,237.300 52.143 C 238.235 51.147,239.180 50.002,239.400 49.598 C 239.620 49.193,240.745 47.857,241.900 46.629 C 243.055 45.401,244.000 44.248,244.000 44.069 C 244.000 43.889,244.900 42.778,246.000 41.600 C 247.100 40.422,248.000 39.333,248.000 39.181 C 248.000 39.028,248.900 37.974,250.000 36.839 C 251.100 35.703,252.000 34.605,252.000 34.398 C 252.000 34.191,252.810 33.211,253.800 32.221 C 254.790 31.231,255.600 30.247,255.600 30.034 C 255.600 29.240,254.969 29.372,253.987 30.370 M308.000 31.413 C 308.000 31.534,308.330 31.988,308.733 32.421 C 309.240 32.964,309.467 33.038,309.467 32.658 C 309.467 32.356,309.137 31.903,308.733 31.651 C 308.330 31.399,308.000 31.292,308.000 31.413 M312.274 35.059 C 312.131 35.202,312.399 35.652,312.868 36.059 C 314.035 37.071,314.285 36.991,313.366 35.900 C 312.950 35.405,312.592 34.955,312.571 34.900 C 312.550 34.845,312.417 34.917,312.274 35.059 M315.659 37.947 C 315.953 38.416,316.419 38.800,316.696 38.800 C 316.973 38.800,317.200 38.980,317.200 39.200 C 317.200 39.420,317.391 39.600,317.624 39.600 C 318.245 39.600,317.744 38.957,316.351 37.965 L 315.127 37.093 315.659 37.947 M324.400 45.104 C 324.400 45.718,325.946 46.411,326.243 45.930 C 326.416 45.651,326.345 45.587,326.059 45.764 C 325.799 45.924,325.489 45.775,325.354 45.425 C 325.110 44.789,324.400 44.550,324.400 45.104 M116.400 118.167 C 116.400 129.657,115.461 128.400,124.043 128.400 L 131.200 128.400 131.200 160.391 L 131.200 192.382 123.900 192.491 L 116.600 192.600 116.600 202.000 L 116.600 211.400 142.400 211.400 L 168.200 211.400 168.200 202.000 L 168.200 192.600 161.200 192.400 L 154.200 192.200 154.200 160.400 L 154.200 128.600 160.859 128.491 C 165.860 128.408,167.630 128.246,167.967 127.840 C 168.548 127.140,168.389 109.529,167.800 109.333 C 167.539 109.246,167.440 112.393,167.514 118.400 L 167.629 127.600 161.043 127.600 C 155.589 127.600,154.349 127.708,153.829 128.229 C 153.000 129.057,152.855 191.495,153.680 192.320 C 154.015 192.655,156.188 192.800,160.888 192.800 L 167.615 192.800 167.508 201.900 L 167.400 211.000 142.100 211.103 L 116.800 211.206 116.800 202.003 L 116.800 192.800 124.200 192.800 L 131.600 192.800 131.600 160.447 L 131.600 128.093 130.700 127.852 C 130.205 127.719,126.869 127.608,123.286 127.605 L 116.771 127.600 116.886 118.400 C 116.949 113.339,116.865 109.199,116.700 109.200 C 116.535 109.200,116.400 113.235,116.400 118.167 M230.098 144.700 L 230.196 180.200 230.300 145.022 C 230.382 117.491,230.513 109.776,230.902 109.528 C 231.256 109.304,231.197 109.210,230.700 109.206 C 230.038 109.200,230.005 111.118,230.098 144.700 M252.790 109.463 C 253.065 109.600,253.192 120.526,253.175 142.733 C 253.151 174.600,252.961 180.972,251.809 188.400 C 251.619 189.624,251.666 189.576,252.177 188.023 C 253.653 183.533,254.323 109.654,252.890 109.363 C 252.610 109.306,252.565 109.351,252.790 109.463 M229.378 181.778 C 229.227 182.581,229.204 183.337,229.326 183.460 C 229.448 183.582,229.672 183.025,229.822 182.222 C 229.973 181.419,229.996 180.663,229.874 180.540 C 229.752 180.418,229.528 180.975,229.378 181.778 M196.796 183.100 C 196.322 183.705,195.184 185.010,194.267 186.000 C 193.350 186.990,191.250 189.330,189.600 191.199 C 187.950 193.069,186.017 195.229,185.303 195.999 C 183.576 197.865,183.557 197.808,187.037 201.131 C 191.575 205.465,199.734 210.841,201.690 210.786 C 201.971 210.778,200.940 210.146,199.400 209.381 C 194.433 206.914,190.677 204.217,186.899 200.403 C 184.042 197.520,183.943 198.056,188.200 193.366 C 189.960 191.427,192.120 189.021,193.000 188.021 C 193.880 187.020,195.460 185.301,196.511 184.200 L 198.423 182.200 199.311 183.205 C 201.966 186.209,209.205 191.328,209.865 190.669 C 209.967 190.567,209.055 189.997,207.839 189.402 C 205.583 188.298,199.725 183.591,199.332 182.566 C 198.980 181.651,197.725 181.915,196.796 183.100 M228.015 185.770 C 227.180 187.494,226.181 188.562,223.983 190.079 C 223.443 190.452,223.193 190.767,223.428 190.779 C 224.685 190.841,229.800 184.867,229.094 184.161 C 228.983 184.050,228.497 184.773,228.015 185.770 M251.092 190.242 C 250.931 190.402,250.805 190.908,250.812 191.367 C 250.823 192.136,250.856 192.145,251.240 191.485 C 251.688 190.716,251.573 189.760,251.092 190.242 M210.856 191.171 C 212.684 192.340,220.427 192.375,222.246 191.222 C 222.910 190.802,222.881 190.782,222.000 191.054 C 220.743 191.442,213.007 191.434,211.400 191.043 C 210.488 190.822,210.358 190.852,210.856 191.171 M250.020 193.347 C 249.799 193.929,249.339 194.944,248.999 195.603 C 248.658 196.261,248.519 196.800,248.690 196.799 C 249.081 196.799,250.892 192.759,250.622 192.489 C 250.512 192.379,250.241 192.765,250.020 193.347 M247.392 198.288 C 244.753 202.385,239.704 206.828,235.400 208.841 C 234.080 209.458,233.248 209.972,233.551 209.982 C 234.139 210.001,238.865 207.702,239.200 207.234 C 239.310 207.080,239.810 206.673,240.312 206.331 C 243.070 204.447,248.869 197.936,248.298 197.364 C 248.194 197.260,247.786 197.676,247.392 198.288 M231.200 210.400 C 230.667 210.745,230.667 210.788,231.200 210.788 C 231.530 210.788,232.070 210.613,232.400 210.400 C 232.933 210.055,232.933 210.012,232.400 210.012 C 232.070 210.012,231.530 210.187,231.200 210.400 M202.800 211.200 C 203.130 211.413,203.670 211.588,204.000 211.588 C 204.533 211.588,204.533 211.545,204.000 211.200 C 203.670 210.987,203.130 210.812,202.800 210.812 C 202.267 210.812,202.267 210.855,202.800 211.200 M228.400 211.215 C 222.716 213.088,215.665 213.278,206.000 211.819 L 204.600 211.608 205.800 212.020 C 211.472 213.970,226.016 213.458,230.000 211.169 C 230.801 210.709,229.854 210.736,228.400 211.215 M101.068 277.865 C 100.321 278.612,100.788 292.765,101.574 293.186 C 102.508 293.686,192.724 293.763,193.509 293.265 C 193.898 293.018,193.993 291.160,193.909 285.371 L 193.800 277.800 147.568 277.698 C 122.141 277.642,101.216 277.717,101.068 277.865 M193.200 285.602 L 193.200 293.203 147.500 293.102 L 101.800 293.000 101.691 285.500 L 101.582 278.000 147.391 278.000 L 193.200 278.000 193.200 285.602 M78.000 290.200 C 77.856 291.065,77.605 291.367,77.100 291.282 C 76.715 291.218,76.400 291.353,76.400 291.582 C 76.400 291.812,76.040 292.000,75.600 292.000 C 75.160 292.000,74.800 292.180,74.800 292.400 C 74.800 292.620,74.350 292.800,73.800 292.800 C 73.250 292.800,72.800 292.993,72.800 293.229 C 72.800 293.866,71.747 294.800,71.029 294.800 C 70.683 294.800,70.400 294.980,70.400 295.200 C 70.400 295.420,70.080 295.600,69.688 295.600 C 69.297 295.600,68.717 295.960,68.400 296.400 C 68.083 296.840,67.503 297.200,67.112 297.200 C 66.720 297.200,66.400 297.380,66.400 297.600 C 66.400 297.820,66.080 298.000,65.688 298.000 C 65.297 298.000,64.717 298.360,64.400 298.800 C 64.083 299.240,63.453 299.600,63.000 299.600 C 62.547 299.600,61.917 299.960,61.600 300.400 C 61.283 300.840,60.703 301.200,60.312 301.200 C 59.920 301.200,59.600 301.401,59.600 301.647 C 59.600 301.906,59.186 302.014,58.612 301.904 C 58.069 301.801,57.722 301.873,57.841 302.066 C 58.301 302.810,57.180 305.213,56.617 304.690 C 56.242 304.342,56.217 304.119,56.533 303.922 C 56.777 303.769,56.844 303.511,56.682 303.348 C 56.053 302.720,55.393 303.976,55.913 304.810 C 56.265 305.373,56.277 305.600,55.954 305.600 C 55.627 305.600,55.632 305.757,55.974 306.169 C 56.359 306.632,56.304 306.700,55.675 306.535 C 54.898 306.332,54.094 307.981,54.583 308.773 C 54.698 308.958,54.523 309.332,54.196 309.604 C 53.868 309.876,53.600 310.517,53.600 311.030 C 53.600 311.543,53.439 312.376,53.242 312.881 C 53.045 313.387,52.667 314.610,52.403 315.600 C 52.138 316.590,51.760 317.713,51.561 318.095 C 51.362 318.477,51.200 319.231,51.200 319.771 C 51.200 320.311,51.020 320.864,50.800 321.000 C 50.580 321.136,50.400 321.766,50.400 322.400 C 50.400 323.034,50.220 323.664,50.000 323.800 C 49.780 323.936,49.600 324.667,49.600 325.424 C 49.600 326.181,49.420 326.800,49.200 326.800 C 48.980 326.800,48.800 327.419,48.800 328.176 C 48.800 328.933,48.620 329.664,48.400 329.800 C 48.180 329.936,48.000 330.566,48.000 331.200 C 48.000 331.834,47.820 332.464,47.600 332.600 C 47.380 332.736,47.200 333.467,47.200 334.224 C 47.200 334.981,47.020 335.600,46.800 335.600 C 46.580 335.600,46.400 336.219,46.400 336.976 C 46.400 337.733,46.220 338.464,46.000 338.600 C 45.780 338.736,45.600 339.341,45.600 339.944 C 45.600 340.547,45.445 341.211,45.256 341.420 C 44.894 341.820,43.975 344.568,43.189 347.600 C 42.932 348.590,42.560 349.713,42.361 350.095 C 42.162 350.477,42.000 351.321,42.000 351.971 C 42.000 352.621,41.820 353.264,41.600 353.400 C 41.380 353.536,41.200 354.166,41.200 354.800 C 41.200 355.434,41.020 356.064,40.800 356.200 C 40.580 356.336,40.400 356.977,40.400 357.624 C 40.400 358.271,40.220 358.800,40.000 358.800 C 39.780 358.800,39.600 359.520,39.600 360.400 C 39.600 361.280,39.420 362.000,39.200 362.000 C 38.980 362.000,38.800 362.630,38.800 363.400 C 38.800 364.170,38.620 364.800,38.400 364.800 C 38.180 364.800,38.000 365.419,38.000 366.176 C 38.000 366.933,37.820 367.664,37.600 367.800 C 37.380 367.936,37.200 368.577,37.200 369.224 C 37.200 369.871,37.020 370.400,36.800 370.400 C 36.580 370.400,36.400 371.210,36.400 372.200 C 36.400 373.190,36.220 374.000,36.000 374.000 C 35.780 374.000,35.600 374.525,35.600 375.167 C 35.600 375.808,35.390 376.403,35.133 376.489 C 34.877 376.574,34.652 377.307,34.633 378.116 C 34.615 378.926,34.375 379.675,34.100 379.782 C 33.825 379.888,33.600 380.510,33.600 381.164 C 33.600 381.818,33.420 382.464,33.200 382.600 C 32.980 382.736,32.800 383.467,32.800 384.224 C 32.800 384.981,32.640 385.600,32.444 385.600 C 32.086 385.600,31.637 387.561,31.483 389.800 C 31.416 390.771,31.572 391.024,32.300 391.128 C 32.795 391.198,33.200 391.063,33.200 390.828 C 33.200 390.593,33.650 390.400,34.200 390.400 C 34.750 390.400,35.200 390.220,35.200 390.000 C 35.200 389.780,35.729 389.600,36.376 389.600 C 37.023 389.600,37.664 389.420,37.800 389.200 C 37.936 388.980,38.399 388.800,38.829 388.800 C 39.584 388.800,39.974 388.656,41.895 387.662 C 42.387 387.408,43.152 387.200,43.595 387.200 C 44.038 387.200,44.400 387.020,44.400 386.800 C 44.400 386.580,44.839 386.400,45.376 386.400 C 45.913 386.400,46.451 386.240,46.572 386.045 C 46.693 385.850,47.423 385.572,48.196 385.427 C 48.968 385.282,49.600 384.992,49.600 384.782 C 49.600 384.572,50.140 384.400,50.800 384.400 C 51.460 384.400,52.000 384.220,52.000 384.000 C 52.000 383.780,52.360 383.600,52.800 383.600 C 53.240 383.600,53.600 383.420,53.600 383.200 C 53.600 382.980,54.140 382.800,54.800 382.800 C 55.460 382.800,56.000 382.620,56.000 382.400 C 56.000 382.180,56.529 382.000,57.176 382.000 C 57.823 382.000,58.464 381.820,58.600 381.600 C 58.736 381.380,59.276 381.200,59.800 381.200 C 60.324 381.200,60.864 381.020,61.000 380.800 C 61.136 380.580,61.597 380.400,62.024 380.400 C 62.451 380.400,62.800 380.220,62.800 380.000 C 62.800 379.780,63.340 379.600,64.000 379.600 C 64.660 379.600,65.200 379.420,65.200 379.200 C 65.200 378.980,65.652 378.800,66.205 378.800 C 67.174 378.800,67.538 378.674,69.495 377.662 C 69.987 377.408,70.752 377.200,71.195 377.200 C 71.638 377.200,72.000 377.020,72.000 376.800 C 72.000 376.580,72.362 376.400,72.805 376.400 C 73.613 376.400,73.860 376.307,76.332 375.068 C 77.065 374.700,78.000 374.400,78.409 374.400 C 78.818 374.400,79.264 374.220,79.400 374.000 C 79.536 373.780,79.997 373.600,80.424 373.600 C 80.851 373.600,81.200 373.420,81.200 373.200 C 81.200 372.980,81.740 372.800,82.400 372.800 C 83.060 372.800,83.600 372.620,83.600 372.400 C 83.600 372.180,84.140 372.000,84.800 372.000 C 85.460 372.000,86.000 371.820,86.000 371.600 C 86.000 371.380,86.452 371.200,87.005 371.200 C 87.558 371.200,88.368 371.020,88.805 370.800 C 89.242 370.580,89.958 370.220,90.395 370.000 C 90.832 369.780,91.552 369.600,91.995 369.600 C 92.438 369.600,92.800 369.420,92.800 369.200 C 92.800 368.980,93.340 368.800,94.000 368.800 C 94.660 368.800,95.200 368.620,95.200 368.400 C 95.200 368.180,95.614 368.000,96.120 368.000 C 96.626 368.000,97.211 367.851,97.420 367.670 C 97.629 367.488,98.610 367.095,99.600 366.798 C 100.590 366.500,101.580 366.133,101.800 365.983 C 102.020 365.833,102.695 365.592,103.300 365.448 C 103.905 365.303,104.400 365.008,104.400 364.792 C 104.400 364.577,104.940 364.400,105.600 364.400 C 106.260 364.400,106.800 364.220,106.800 364.000 C 106.800 363.780,107.239 363.600,107.776 363.600 C 108.313 363.600,108.864 363.420,109.000 363.200 C 109.136 362.980,109.687 362.800,110.224 362.800 C 110.761 362.800,111.200 362.620,111.200 362.400 C 111.200 362.180,111.740 362.000,112.400 362.000 C 113.060 362.000,113.600 361.820,113.600 361.600 C 113.600 361.380,114.039 361.200,114.576 361.200 C 115.113 361.200,115.664 361.020,115.800 360.800 C 115.936 360.580,116.476 360.400,117.000 360.400 C 117.524 360.400,118.064 360.220,118.200 360.000 C 118.336 359.780,118.887 359.600,119.424 359.600 C 119.961 359.600,120.400 359.420,120.400 359.200 C 120.400 358.980,120.940 358.800,121.600 358.800 C 122.260 358.800,122.801 358.665,122.802 358.500 C 122.803 358.335,124.198 357.765,125.902 357.234 C 127.606 356.703,129.180 356.143,129.400 355.989 C 129.620 355.836,130.295 355.592,130.900 355.448 C 131.505 355.303,132.000 355.008,132.000 354.792 C 132.000 354.577,132.540 354.400,133.200 354.400 C 133.860 354.400,134.400 354.220,134.400 354.000 C 134.400 353.780,134.839 353.600,135.376 353.600 C 135.913 353.600,136.464 353.420,136.600 353.200 C 136.736 352.980,137.287 352.800,137.824 352.800 C 138.361 352.800,138.800 352.620,138.800 352.400 C 138.800 352.180,139.340 352.000,140.000 352.000 C 140.660 352.000,141.200 351.820,141.200 351.600 C 141.200 351.380,141.740 351.200,142.400 351.200 C 143.060 351.200,143.600 351.020,143.600 350.800 C 143.600 350.580,144.039 350.400,144.576 350.400 C 145.113 350.400,145.664 350.220,145.800 350.000 C 145.936 349.780,146.487 349.600,147.024 349.600 C 147.561 349.600,148.000 349.420,148.000 349.200 C 148.000 348.980,148.439 348.800,148.976 348.800 C 149.513 348.800,150.064 348.620,150.200 348.400 C 150.336 348.180,150.876 348.000,151.400 348.000 C 151.924 348.000,152.464 347.820,152.600 347.600 C 153.024 346.914,155.193 347.162,156.092 348.000 C 156.564 348.440,157.187 348.800,157.475 348.800 C 157.764 348.800,158.000 348.980,158.000 349.200 C 158.000 349.420,158.236 349.600,158.525 349.600 C 158.813 349.600,159.407 349.915,159.845 350.300 C 160.675 351.030,161.583 351.594,164.100 352.944 C 164.925 353.386,165.600 353.895,165.600 354.074 C 165.600 354.253,165.870 354.400,166.200 354.400 C 166.530 354.400,167.133 354.715,167.540 355.100 C 168.693 356.191,169.987 357.200,170.233 357.200 C 170.355 357.200,171.241 357.740,172.200 358.400 C 173.159 359.060,174.137 359.600,174.372 359.600 C 174.607 359.600,174.800 359.780,174.800 360.000 C 174.800 360.220,175.120 360.400,175.512 360.400 C 175.903 360.400,176.483 360.760,176.800 361.200 C 177.117 361.640,177.657 362.000,178.000 362.000 C 178.343 362.000,178.883 362.360,179.200 362.800 C 179.517 363.240,180.097 363.600,180.488 363.600 C 180.880 363.600,181.200 363.780,181.200 364.000 C 181.200 364.220,181.470 364.400,181.800 364.400 C 182.130 364.400,182.400 364.558,182.400 364.751 C 182.400 364.945,182.905 365.312,183.521 365.567 C 184.138 365.823,185.120 366.475,185.704 367.016 C 186.287 367.557,187.041 368.000,187.379 368.000 C 187.717 368.000,188.218 368.360,188.493 368.800 C 188.768 369.240,189.197 369.600,189.448 369.600 C 190.253 369.600,194.385 372.281,194.087 372.610 C 193.929 372.785,194.010 372.808,194.266 372.661 C 194.523 372.515,195.268 372.846,195.924 373.397 C 196.579 373.949,197.385 374.400,197.715 374.400 C 198.045 374.400,198.418 374.670,198.545 375.000 C 198.671 375.330,199.051 375.600,199.387 375.600 C 199.724 375.600,200.000 375.780,200.000 376.000 C 200.000 376.220,200.225 376.355,200.500 376.300 C 200.775 376.245,200.955 376.425,200.900 376.700 C 200.845 376.975,200.980 377.200,201.200 377.200 C 201.420 377.200,201.600 377.018,201.600 376.797 C 201.600 376.553,201.907 376.585,202.374 376.877 C 202.800 377.143,203.059 377.504,202.951 377.680 C 202.842 377.856,202.954 378.000,203.200 378.000 C 203.446 378.000,203.533 378.225,203.394 378.500 C 203.255 378.775,203.424 378.651,203.770 378.224 C 204.260 377.619,204.289 377.377,203.900 377.130 C 203.533 376.897,203.527 376.811,203.876 376.806 C 204.138 376.803,204.466 376.983,204.604 377.207 C 204.971 377.801,205.600 377.277,205.600 376.376 C 205.600 375.949,205.780 375.600,206.000 375.600 C 206.220 375.600,206.400 375.150,206.400 374.600 C 206.400 374.050,206.580 373.600,206.800 373.600 C 207.020 373.600,207.200 373.240,207.200 372.800 C 207.200 372.360,207.380 372.000,207.600 372.000 C 207.820 372.000,208.000 371.680,208.000 371.288 C 208.000 370.897,208.360 370.317,208.800 370.000 C 209.240 369.683,209.600 369.103,209.600 368.712 C 209.600 368.320,209.780 368.000,210.000 368.000 C 210.220 368.000,210.400 367.640,210.400 367.200 C 210.400 366.760,210.580 366.400,210.800 366.400 C 211.020 366.400,211.200 365.950,211.200 365.400 C 211.200 364.850,211.380 364.400,211.600 364.400 C 211.820 364.400,212.000 364.080,212.000 363.688 C 212.000 363.297,212.360 362.717,212.800 362.400 C 213.240 362.083,213.600 361.503,213.600 361.112 C 213.600 360.720,213.780 360.400,214.000 360.400 C 214.220 360.400,214.400 360.040,214.400 359.600 C 214.400 359.156,214.667 358.800,215.000 358.800 C 215.333 358.800,215.600 358.444,215.600 358.000 C 215.600 357.560,215.780 357.200,216.000 357.200 C 216.220 357.200,216.400 356.840,216.400 356.400 C 216.400 355.960,216.580 355.600,216.800 355.600 C 217.020 355.600,217.200 355.330,217.200 355.000 C 217.200 354.670,217.380 354.400,217.600 354.400 C 217.820 354.400,218.000 354.040,218.000 353.600 C 218.000 353.160,218.180 352.800,218.400 352.800 C 218.620 352.800,218.800 352.440,218.800 352.000 C 218.800 351.560,218.980 351.200,219.200 351.200 C 219.420 351.200,219.600 350.840,219.600 350.400 C 219.600 349.960,219.780 349.600,220.000 349.600 C 220.220 349.600,220.400 349.280,220.400 348.888 C 220.400 348.497,220.760 347.917,221.200 347.600 C 221.640 347.283,222.000 346.703,222.000 346.312 C 222.000 345.920,222.180 345.600,222.400 345.600 C 222.620 345.600,222.800 345.150,222.800 344.600 C 222.800 344.050,222.980 343.600,223.200 343.600 C 223.420 343.600,223.600 343.240,223.600 342.800 C 223.600 342.360,223.780 342.000,224.000 342.000 C 224.220 342.000,224.400 341.640,224.400 341.200 C 224.400 340.756,224.667 340.400,225.000 340.400 C 225.330 340.400,225.600 340.080,225.600 339.688 C 225.600 339.297,225.960 338.717,226.400 338.400 C 226.840 338.083,227.200 337.503,227.200 337.112 C 227.200 336.720,227.380 336.400,227.600 336.400 C 227.820 336.400,228.000 335.950,228.000 335.400 C 228.000 334.850,228.180 334.400,228.400 334.400 C 228.620 334.400,228.800 334.040,228.800 333.600 C 228.800 333.160,228.980 332.800,229.200 332.800 C 229.420 332.800,229.600 332.480,229.600 332.088 C 229.600 331.697,229.960 331.117,230.400 330.800 C 230.840 330.483,231.200 329.903,231.200 329.512 C 231.200 329.120,231.380 328.800,231.600 328.800 C 231.820 328.800,232.000 328.440,232.000 328.000 C 232.000 327.560,232.180 327.200,232.400 327.200 C 232.620 327.200,232.800 326.840,232.800 326.400 C 232.800 325.960,232.980 325.600,233.200 325.600 C 233.420 325.600,233.600 325.330,233.600 325.000 C 233.600 324.470,238.956 324.400,279.400 324.400 C 322.764 324.400,325.198 324.363,325.168 323.700 C 325.150 323.282,325.056 323.201,324.935 323.500 C 324.774 323.898,299.727 324.000,201.571 324.000 L 78.408 324.000 78.304 306.500 C 78.247 296.875,78.110 289.540,78.000 290.200 " stroke="none" fill="#4862c6" fill-rule="evenodd"></path><path id="path4" d="M78.400 200.600 L 78.400 324.000 201.557 324.000 C 313.491 324.000,324.737 323.942,324.957 323.367 C 325.275 322.540,325.275 78.660,324.957 77.833 C 324.737 77.258,313.491 77.200,201.557 77.200 L 78.400 77.200 78.400 200.600 M168.308 118.350 C 168.441 129.381,169.195 128.353,160.859 128.491 L 154.200 128.600 154.200 160.400 L 154.200 192.200 161.200 192.400 L 168.200 192.600 168.200 202.000 L 168.200 211.400 142.400 211.400 L 116.600 211.400 116.600 202.000 L 116.600 192.600 123.900 192.491 L 131.200 192.382 131.200 160.391 L 131.200 128.400 124.043 128.400 C 115.461 128.400,116.400 129.657,116.400 118.164 L 116.400 109.194 142.300 109.297 L 168.200 109.400 168.308 118.350 M253.519 141.800 C 253.643 175.717,253.380 183.956,252.018 188.789 C 251.055 192.205,249.447 196.234,248.820 196.800 C 248.698 196.910,248.358 197.468,248.064 198.039 C 247.770 198.611,247.077 199.601,246.524 200.239 C 245.970 200.878,245.217 201.760,244.851 202.200 C 244.212 202.967,241.375 205.537,239.767 206.805 C 236.195 209.624,227.718 212.431,220.559 213.166 C 207.981 214.457,196.780 210.436,187.037 201.131 C 183.557 197.808,183.576 197.865,185.303 195.999 C 186.017 195.229,187.950 193.069,189.600 191.199 C 191.250 189.330,193.350 186.990,194.267 186.000 C 195.184 185.010,196.322 183.705,196.796 183.100 C 197.725 181.915,198.980 181.651,199.332 182.566 C 199.754 183.667,205.588 188.274,208.078 189.472 C 216.559 193.554,224.917 191.932,228.026 185.600 C 230.010 181.558,230.000 181.774,230.000 144.388 L 230.000 109.188 241.700 109.294 L 253.400 109.400 253.519 141.800 M193.909 285.371 C 193.993 291.160,193.898 293.018,193.509 293.265 C 192.724 293.763,102.508 293.686,101.574 293.186 C 100.788 292.765,100.321 278.612,101.068 277.865 C 101.216 277.717,122.141 277.642,147.568 277.698 L 193.800 277.800 193.909 285.371 " stroke="none" fill="#040404" fill-rule="evenodd"></path></g></svg>