<?xml version="1.0" standalone="no"?>
<!DOCTYPE svg PUBLIC "-//W3C//DTD SVG 20010904//EN"
 "http://www.w3.org/TR/2001/REC-SVG-20010904/DTD/svg10.dtd">
<svg version="1.0" xmlns="http://www.w3.org/2000/svg"
 width="627.000000pt" height="627.000000pt" viewBox="0 0 627.000000 627.000000"
 preserveAspectRatio="xMidYMid meet">

<g transform="translate(0.000000,627.000000) scale(0.100000,-0.100000)"
fill="#000000" stroke="none">
<path d="M3071 6103 c-7 -11 -11 -13 -11 -5 0 14 -100 13 -254 -2 -83 -7 -104
-26 -46 -41 21 -5 42 -14 46 -18 5 -4 2 -6 -6 -3 -8 3 -35 10 -59 16 -33 9
-41 14 -30 21 10 6 5 9 -18 9 -17 0 -38 -7 -47 -15 -8 -8 -21 -15 -28 -15 -10
0 -9 3 2 11 11 8 8 9 -15 4 -16 -4 -37 -9 -45 -10 -8 -2 -17 -4 -20 -5 -3 -1
-9 -2 -14 -1 -5 1 -16 -1 -25 -5 -9 -3 -28 -8 -44 -9 -15 -1 -34 -8 -43 -15
-8 -7 -27 -14 -42 -15 -15 -2 -38 -5 -52 -9 -14 -3 -37 -8 -53 -12 -15 -3 -25
-9 -22 -14 3 -5 0 -12 -6 -16 -8 -4 -9 -3 -5 4 4 7 3 12 -2 12 -19 0 -102 -32
-102 -40 0 -4 -8 -7 -17 -6 -10 0 -17 -4 -16 -10 1 -5 -8 -16 -20 -24 -20 -12
-21 -12 -8 4 18 22 8 31 -13 11 -9 -9 -22 -13 -28 -10 -7 4 -4 -1 6 -9 22 -18
14 -21 -14 -6 -21 11 -50 4 -50 -12 0 -12 -30 -37 -44 -38 -4 0 2 9 15 20 l24
19 -32 -11 c-17 -7 -29 -16 -26 -21 3 -5 0 -7 -8 -5 -14 5 -102 -34 -129 -57
-8 -8 -19 -15 -25 -17 -5 -2 -9 -7 -7 -11 1 -5 -2 -6 -7 -3 -5 3 -17 3 -26 0
-13 -6 -14 -9 -3 -16 9 -7 7 -8 -9 -5 -22 5 -90 -29 -79 -40 3 -3 14 1 23 9
29 24 40 28 40 14 0 -8 -6 -12 -14 -9 -19 7 -16 -7 5 -24 9 -8 11 -11 3 -7
-34 18 -86 13 -118 -12 -17 -13 -36 -24 -41 -24 -5 0 -21 -11 -35 -24 -14 -13
-28 -22 -30 -20 -2 3 -10 -4 -18 -13 -12 -16 -12 -17 2 -6 9 7 18 10 22 7 7
-7 48 14 44 24 -1 4 1 8 6 10 4 1 8 -1 9 -5 3 -15 -50 -44 -80 -45 -17 -1 -39
-9 -48 -20 -19 -20 -6 -26 14 -6 7 7 12 8 12 2 0 -20 -23 -33 -41 -24 -12 7
-23 4 -41 -11 -12 -11 -17 -17 -9 -13 9 5 12 3 7 -5 -4 -6 -11 -9 -16 -6 -14
8 -64 -40 -56 -54 4 -6 11 -9 15 -7 4 3 8 -1 8 -8 0 -7 -6 -13 -13 -13 -7 0
-11 4 -8 8 11 19 -20 19 -40 0 -12 -12 -27 -21 -33 -21 -6 0 -32 -24 -59 -52
-27 -29 -66 -68 -87 -85 -22 -18 -35 -33 -30 -33 4 0 -10 -15 -32 -34 -32 -27
-37 -36 -27 -48 9 -12 9 -15 -3 -15 -8 0 -12 4 -9 9 3 4 1 8 -4 8 -12 0 -42
-34 -42 -47 0 -6 -7 -16 -15 -23 -8 -7 -12 -16 -9 -21 3 -5 -3 -6 -13 -2 -16
6 -16 5 -4 -10 7 -9 18 -14 24 -10 6 3 7 1 3 -6 -4 -6 -11 -9 -16 -6 -5 3 -11
1 -15 -4 -3 -6 -12 -8 -20 -5 -15 6 -38 -29 -27 -41 4 -5 2 -5 -5 -1 -14 8
-26 -10 -31 -44 -4 -37 -10 -50 -22 -50 -7 0 -8 6 0 19 17 33 11 34 -16 2 -21
-26 -23 -34 -14 -52 7 -13 8 -19 2 -15 -6 3 -13 -3 -17 -14 -4 -11 -11 -18
-16 -15 -5 4 -2 13 6 21 8 9 15 21 15 27 0 7 -9 1 -19 -12 -14 -19 -16 -29 -8
-42 9 -14 13 -15 24 -3 18 18 19 18 19 -4 0 -14 -7 -18 -23 -16 -13 1 -23 -2
-23 -6 0 -5 -10 -10 -23 -12 -42 -7 588 -7 696 0 89 6 110 5 124 -8 14 -13 15
-13 10 1 -3 9 0 16 8 16 10 0 11 -6 2 -24 l-11 -24 -19 23 c-13 17 -12 11 5
-19 23 -42 23 -43 28 -15 3 16 8 22 13 15 4 -6 3 -21 -1 -34 -7 -17 -3 -32 11
-56 10 -18 23 -33 29 -33 5 0 7 -4 4 -8 -3 -5 2 -20 12 -33 9 -13 18 -31 19
-39 1 -8 9 -20 18 -26 9 -7 17 -16 17 -21 2 -20 22 -52 29 -47 5 3 10 22 11
42 1 36 1 36 5 5 2 -18 0 -41 -6 -51 -8 -15 -3 -31 24 -77 19 -32 35 -61 35
-66 0 -4 8 -13 18 -18 9 -6 13 -11 9 -11 -10 0 45 -100 56 -100 4 0 7 5 7 10
0 6 -4 10 -10 10 -5 0 -6 7 -3 17 4 10 2 14 -5 9 -6 -3 -13 -3 -16 2 -2 4 6 8
18 8 18 0 22 -5 19 -20 -2 -12 -1 -15 3 -8 3 6 10 10 15 6 5 -3 9 3 9 12 0 10
3 15 6 11 9 -9 -6 -48 -17 -42 -9 6 -14 -10 -9 -30 1 -5 3 -17 5 -25 2 -8 11
-30 20 -48 14 -27 20 -31 31 -21 8 7 12 14 9 18 -3 3 -10 -1 -15 -8 -5 -10 -8
-6 -7 12 2 20 5 23 16 14 10 -9 19 -4 41 23 16 19 27 36 25 38 -2 2 8 15 23
29 15 14 26 29 24 34 -1 5 4 8 10 7 7 -2 12 3 10 10 -1 6 1 11 5 10 10 -4 59
45 55 55 -1 4 2 6 7 5 10 -3 121 112 121 126 0 4 -6 6 -14 3 -8 -3 -13 0 -12
8 3 23 14 29 29 16 8 -6 21 -10 28 -8 8 2 11 2 6 0 -4 -3 -5 -9 -1 -14 3 -5
22 3 42 18 54 40 60 47 35 40 -13 -3 -23 -1 -23 3 0 5 10 10 23 12 12 2 22 8
22 15 0 6 4 15 9 20 5 5 6 2 1 -6 -6 -10 -2 -12 16 -7 13 3 18 3 12 0 -7 -3
-13 -10 -13 -15 0 -5 14 -2 31 6 19 11 29 22 25 31 -3 8 -1 14 5 14 6 0 7 4 4
10 -3 6 1 7 10 4 8 -4 22 -1 30 6 8 6 20 10 27 8 7 -3 -4 -11 -24 -18 -21 -8
-38 -17 -38 -21 0 -4 33 7 74 24 41 18 72 36 68 41 -3 5 0 6 6 2 6 -3 23 -1
39 5 15 7 35 13 44 15 9 2 29 9 45 15 27 11 34 13 59 18 6 1 3 6 -5 12 -11 8
-9 9 10 3 30 -9 72 -7 79 4 3 5 15 8 26 8 11 1 56 5 100 9 44 5 86 8 93 6 17
-3 15 10 -5 26 -12 8 -13 12 -4 11 7 -2 16 3 19 11 2 8 0 11 -6 7 -6 -3 -13
-2 -16 3 -3 4 14 7 38 6 l44 -2 36 65 c20 35 33 69 29 75 -3 6 -1 7 5 3 6 -3
16 3 22 15 7 12 8 19 2 15 -6 -4 -8 2 -5 14 3 11 10 20 15 20 5 0 6 -5 2 -12
-4 -7 -3 -8 4 -4 7 4 12 16 12 27 0 13 -4 18 -12 13 -7 -4 -8 -3 -4 4 4 6 13
9 21 6 20 -8 45 45 34 74 -5 14 -5 21 0 17 5 -3 12 1 15 7 3 7 3 2 0 -11 -4
-16 -3 -21 5 -17 6 4 11 12 11 18 0 5 9 21 20 36 16 20 18 27 8 34 -10 6 -8 8
5 8 16 0 21 10 18 39 -2 7 2 10 8 7 16 -10 22 11 6 24 -8 7 -15 18 -15 24 0 6
4 5 9 -3 7 -11 12 -7 24 16 9 16 24 36 33 44 10 8 3 -8 -16 -36 -20 -30 -25
-43 -13 -32 11 10 29 34 39 55 10 20 28 51 39 67 27 41 28 50 5 87 -19 32 -20
32 -26 11 -8 -28 -20 -30 -20 -4 0 11 3 18 7 15 4 -2 9 2 12 8 7 20 -32 90
-45 82 -7 -5 -8 -3 -4 5 5 7 -6 34 -27 65 -19 28 -44 71 -56 94 -12 23 -24 42
-26 42 -3 0 1 -12 8 -27 22 -44 31 -77 18 -69 -6 4 -11 16 -11 27 0 11 -4 18
-8 15 -4 -2 -8 3 -9 12 -4 44 -11 71 -29 100 -18 32 -34 42 -34 22 0 -5 4 -10
10 -10 5 0 7 -8 4 -17 -4 -14 -3 -15 4 -5 8 11 10 11 15 0 3 -9 -2 -14 -17
-14 -18 0 -21 5 -20 36 2 46 -6 58 -20 31 -10 -19 -12 -16 -12 21 -1 24 1 33
3 20 3 -12 9 -20 14 -16 6 3 0 21 -12 42 -21 35 -51 74 -34 43 6 -10 4 -12 -4
-7 -7 5 -10 14 -7 21 3 8 -2 19 -11 27 -15 11 -16 10 -10 -11 4 -18 3 -21 -6
-12 -8 8 -9 16 -1 28 8 14 5 27 -15 60 -29 48 -35 51 -50 26z m59 -66 c0 -5
-11 5 -25 21 -14 17 -25 36 -25 43 0 7 11 -2 25 -21 14 -19 25 -38 25 -43z
m-303 27 c-3 -3 -12 -4 -19 -1 -8 3 -5 6 6 6 11 1 17 -2 13 -5z m243 2 c0 -3
-4 -8 -10 -11 -5 -3 -10 -1 -10 4 0 6 5 11 10 11 6 0 10 -2 10 -4z m-395 -16
c3 -5 1 -10 -4 -10 -6 0 -11 5 -11 10 0 6 2 10 4 10 3 0 8 -4 11 -10z m-215
-40 c0 -5 -7 -10 -16 -10 -8 0 -12 5 -9 10 3 6 10 10 16 10 5 0 9 -4 9 -10z
m-104 -25 c-13 -10 -15 -15 -6 -15 7 0 11 -3 7 -6 -3 -3 -11 -3 -18 2 -9 5 -7
11 6 21 11 7 21 13 24 13 3 0 -3 -7 -13 -15z m74 -2 c0 -5 -11 -8 -24 -8 -13
0 -22 3 -19 8 2 4 13 7 24 7 10 0 19 -3 19 -7z m43 -13 c-6 -21 -18 -26 -28
-11 -4 7 17 28 32 31 0 0 -1 -9 -4 -20z m-183 0 c0 -5 -2 -10 -4 -10 -3 0 -8
5 -11 10 -3 6 -1 10 4 10 6 0 11 -4 11 -10z m-293 -136 c-3 -3 -12 -4 -19 -1
-8 3 -5 6 6 6 11 1 17 -2 13 -5z m-112 -14 c-3 -5 -12 -10 -18 -10 -7 0 -6 4
3 10 19 12 23 12 15 0z m-45 -25 c-7 -9 -15 -13 -19 -10 -3 3 1 10 9 15 21 14
24 12 10 -5z m-45 -35 c-3 -5 -11 -10 -16 -10 -6 0 -7 5 -4 10 3 6 11 10 16
10 6 0 7 -4 4 -10z m-20 -30 c-27 -12 -43 -12 -25 0 8 5 22 9 30 9 10 0 8 -3
-5 -9z m-188 -75 c0 -8 -4 -12 -9 -9 -5 3 -6 10 -3 15 9 13 12 11 12 -6z m88
-15 c3 -6 -1 -7 -9 -4 -18 7 -21 14 -7 14 6 0 13 -4 16 -10z m1700 -9 c3 -5 0
-13 -6 -17 -7 -4 -9 -3 -5 4 3 5 0 13 -6 15 -9 4 -10 6 -1 6 6 1 14 -3 18 -8z
m20 -31 c3 -5 -1 -10 -10 -10 -9 0 -13 5 -10 10 3 6 8 10 10 10 2 0 7 -4 10
-10z m-1885 -35 c-7 -8 -17 -15 -23 -15 -6 0 -2 7 9 15 25 19 30 19 14 0z
m1889 8 c14 11 14 10 2 -6 -10 -13 -17 -15 -27 -6 -8 6 -14 14 -14 17 0 3 5 1
12 -6 9 -9 15 -9 27 1z m-1209 -37 c0 -2 -7 -7 -16 -10 -8 -3 -12 -2 -9 4 6
10 25 14 25 6z m50 -6 c0 -5 -10 -15 -22 -21 l-23 -12 20 21 c23 24 25 25 25
12z m-30 -37 c27 7 29 1 32 -76 2 -54 4 -62 14 -49 7 9 16 14 20 9 4 -4 2 -7
-4 -7 -7 0 -9 -11 -5 -30 4 -23 2 -30 -11 -30 -15 0 -22 -29 -16 -69 1 -11 -2
-10 -15 3 -9 9 -21 14 -25 11 -11 -7 -33 32 -26 43 3 5 -16 9 -42 11 -25 1
-48 4 -50 6 -7 7 10 85 17 81 4 -3 15 8 24 24 13 21 14 31 6 36 -7 4 -9 3 -6
-3 4 -6 0 -14 -9 -17 -8 -3 -12 -11 -8 -17 4 -8 3 -9 -4 -5 -9 5 -7 14 4 31 9
14 20 22 26 19 15 -9 37 16 31 34 -6 15 -5 15 10 3 9 -7 26 -11 37 -8z m1244
1 c3 -8 2 -12 -4 -9 -6 3 -10 10 -10 16 0 14 7 11 14 -7z m-2099 -3 c3 -5 2
-12 -3 -15 -5 -3 -9 1 -9 9 0 17 3 19 12 6z m68 -18 c-7 -2 -19 -2 -25 0 -7 3
-2 5 12 5 14 0 19 -2 13 -5z m672 -13 c3 -5 1 -10 -4 -10 -6 0 -11 5 -11 10 0
6 2 10 4 10 3 0 8 -4 11 -10z m1395 -60 c-13 -8 -13 -10 -1 -10 8 0 12 -3 8
-6 -3 -3 -11 -3 -17 1 -8 5 -8 11 1 21 6 8 14 12 18 9 3 -3 -1 -10 -9 -15z
m-2302 -44 c-8 -6 -14 -19 -12 -28 1 -11 -3 -15 -13 -11 -10 4 -11 8 -3 13 6
4 11 10 11 14 -3 18 0 23 15 23 14 0 15 -2 2 -11z m2274 -10 c7 4 8 2 4 -4
-11 -18 -26 -14 -25 6 0 10 3 12 6 4 2 -6 10 -9 15 -6z m-1155 -28 c-3 -8 -6
-5 -6 6 -1 11 2 17 5 13 3 -3 4 -12 1 -19z m-1180 -6 c-10 -10 -14 -22 -10
-25 3 -4 1 -7 -6 -7 -7 0 -9 -5 -4 -12 16 -26 12 -41 -6 -24 -14 13 -20 13
-31 3 -7 -6 4 9 24 36 21 26 41 47 44 47 3 0 -2 -8 -11 -18z m2266 -46 c-3 -4
-9 -2 -14 5 -13 22 -11 31 5 17 8 -7 12 -17 9 -22z m-1219 -12 c3 -8 2 -12 -4
-9 -6 3 -10 10 -10 16 0 14 7 11 14 -7z m-1131 -26 c-6 -7 -9 -27 -8 -44 1
-18 -4 -31 -10 -31 -16 0 -12 52 5 72 15 18 27 20 13 3z m-50 -63 c-3 -9 -8
-13 -11 -11 -3 3 -10 2 -17 -2 -6 -4 -2 1 8 11 24 21 28 21 20 2z m556 -22
c-1 -5 2 -18 6 -31 6 -18 10 -20 21 -11 19 15 18 33 -1 25 -8 -3 -15 -1 -15 4
0 6 6 10 13 11 6 0 20 2 30 4 15 3 16 1 6 -12 -11 -12 -10 -14 7 -11 16 3 19
-2 17 -34 -1 -21 2 -38 6 -38 5 0 7 22 7 49 -2 41 0 47 12 35 17 -18 56 -19
49 -1 -3 8 7 12 32 13 20 0 30 -1 23 -4 -9 -3 -6 -8 9 -16 20 -10 23 -18 21
-54 -3 -33 0 -44 14 -49 10 -4 19 -2 22 5 2 7 7 10 12 7 4 -3 7 15 7 40 -2 47
-1 49 50 46 17 -1 34 3 38 9 3 5 11 10 16 10 6 0 8 -4 5 -9 -3 -5 5 -8 19 -8
15 0 22 4 18 11 -3 6 -2 7 3 3 4 -4 9 -17 9 -27 0 -11 5 -20 10 -19 6 0 9 12
8 27 -2 19 0 23 6 13 5 -8 18 -12 30 -8 17 4 21 0 22 -21 0 -15 3 -20 6 -12
11 36 27 59 36 53 5 -3 3 -9 -4 -14 -10 -6 -8 -9 9 -9 13 0 21 4 18 9 -3 5 3
11 15 14 16 4 18 3 8 -9 -9 -11 -8 -14 5 -14 9 0 16 4 16 9 0 5 7 12 16 15 12
5 15 2 10 -11 -5 -16 -4 -16 6 -3 17 20 68 21 60 1 -3 -9 -1 -12 5 -8 6 4 13
4 16 0 2 -5 2 -3 1 4 -2 6 4 14 13 17 11 5 14 2 9 -9 -3 -9 -2 -14 3 -11 5 3
23 3 39 0 27 -5 31 -10 29 -35 -2 -24 -4 -27 -13 -14 -9 12 -11 9 -12 -15 -1
-41 24 -39 42 3 7 19 12 46 11 60 -2 15 1 25 6 21 5 -3 7 -10 4 -15 -4 -5 1
-9 9 -9 8 0 14 6 12 13 -1 6 -1 9 1 4 3 -4 9 -4 15 -1 6 4 9 1 6 -7 -3 -8 4
-36 14 -64 10 -27 18 -55 18 -62 0 -14 -21 -14 -31 0 -10 13 -49 17 -49 4 0
-9 -24 -12 -80 -12 -43 1 -81 3 -83 5 -2 3 -11 16 -21 30 -10 14 -17 18 -15
10 5 -43 1 -46 -68 -45 -56 1 -68 4 -74 21 -7 16 -8 17 -8 2 -1 -10 -7 -18
-13 -19 -7 -1 -25 -2 -40 -3 -16 -2 -28 1 -28 6 0 5 -6 6 -12 1 -7 -4 -63 -7
-124 -8 l-112 0 3 33 c2 35 -10 43 -20 12 -5 -17 -10 -18 -27 -9 -11 6 -22 8
-26 5 -3 -3 0 -6 7 -6 16 0 -6 -23 -31 -33 -13 -4 -16 -2 -12 11 5 15 4 15 -9
-1 -14 -17 -15 -17 -33 0 -15 15 -17 16 -12 2 5 -13 1 -16 -18 -15 -13 0 -24
4 -24 8 0 4 -12 3 -26 -2 -16 -7 -23 -7 -19 0 3 6 2 10 -4 10 -5 0 -11 -5 -13
-11 -2 -6 -14 -1 -27 10 -13 12 -19 21 -12 21 7 0 11 8 10 18 -4 43 3 68 22
80 16 10 24 10 35 1 11 -9 14 -8 14 5 0 9 5 16 10 16 6 0 10 -3 9 -7z m381 3
c0 -3 -4 -8 -10 -11 -5 -3 -10 -1 -10 4 0 6 5 11 10 11 6 0 10 -2 10 -4z m480
-16 c0 -5 -7 -7 -15 -4 -8 4 -12 10 -9 15 6 11 24 2 24 -11z m142 1 c-4 -11 1
-13 21 -9 16 3 27 1 28 -6 0 -6 5 0 12 13 l11 23 11 -32 11 -31 19 22 c11 12
15 19 9 16 -7 -4 -17 0 -23 7 -10 12 -8 13 9 9 11 -3 23 -10 26 -15 3 -5 15
-1 27 9 19 16 20 16 8 1 -16 -22 1 -24 19 -3 7 8 18 15 24 14 7 0 6 -2 -2 -6
-6 -2 -9 -10 -6 -15 5 -7 2 -8 -6 -3 -9 5 -11 4 -6 -4 5 -7 12 -9 19 -3 24 17
50 7 68 -28 l19 -35 -4 47 c-5 46 -4 46 15 27 14 -14 19 -33 19 -74 0 -30 -3
-55 -7 -56 -5 0 -16 -2 -25 -4 -11 -2 -15 2 -11 11 3 9 -1 14 -12 14 -9 0 -13
-4 -10 -10 3 -5 -3 -10 -14 -10 -21 0 -24 7 -22 45 0 14 -1 16 -6 5 -3 -8 -10
-23 -15 -34 -8 -14 -7 -17 4 -11 7 5 9 4 5 0 -8 -10 -118 -14 -112 -5 1 3 -1
23 -5 45 l-8 40 -1 -45 c-1 -42 -3 -46 -25 -46 -15 0 -22 4 -18 11 4 5 8 30 9
55 1 28 -1 40 -6 31 -5 -7 -13 -11 -18 -8 -6 4 -10 -12 -10 -36 0 -23 2 -32 4
-19 2 12 8 22 13 22 17 0 -7 -43 -28 -51 -27 -10 -40 12 -35 60 3 31 2 33 -10
17 -10 -13 -14 -15 -15 -5 0 8 -3 26 -5 42 -2 15 0 27 4 27 5 0 9 -4 9 -10 0
-5 4 -10 10 -10 5 0 7 6 4 13 -3 8 3 13 15 13 12 0 17 -5 13 -15z m272 3 c24
-24 19 -30 -6 -8 -13 10 -25 20 -27 21 -2 2 1 3 7 3 6 0 18 -7 26 -16z m498
-2 c-3 -10 -1 -13 6 -8 7 4 12 3 12 -3 0 -5 -4 -13 -10 -16 -5 -3 -10 0 -10 7
0 10 -2 10 -9 -1 -7 -10 -9 -7 -8 11 1 13 7 25 14 25 6 0 9 -7 5 -15z m-2384
-40 c15 12 16 11 3 -5 -10 -13 -17 -15 -27 -6 -8 6 -11 16 -7 23 5 7 9 5 11
-7 3 -15 6 -16 20 -5z m874 -32 c3 -16 1 -30 -4 -30 -4 0 -8 14 -8 30 0 17 2
30 4 30 2 0 6 -13 8 -30z m-92 -54 c0 -2 -7 -6 -15 -10 -8 -3 -15 -1 -15 4 0
6 7 10 15 10 8 0 15 -2 15 -4z m1494 -46 c-6 -6 -10 -3 -10 10 0 13 4 16 10
10 7 -7 7 -13 0 -20z m-2417 -82 c-3 -8 -6 -5 -6 6 -1 11 2 17 5 13 3 -3 4
-12 1 -19z m2383 -13 c0 -12 -40 -84 -50 -90 -15 -9 -12 4 5 22 9 8 19 28 22
44 3 16 9 29 14 29 5 0 9 -2 9 -5z m-193 -131 c-3 -3 -12 -4 -19 -1 -8 3 -5 6
6 6 11 1 17 -2 13 -5z m0 -20 c-3 -3 -12 -4 -19 -1 -8 3 -5 6 6 6 11 1 17 -2
13 -5z m6 -21 c-7 -2 -19 -2 -25 0 -7 3 -2 5 12 5 14 0 19 -2 13 -5z m-328
-45 c6 -4 2 -8 -7 -8 -10 0 -18 7 -18 17 0 9 3 12 8 7 4 -5 12 -12 17 -16z
m-60 3 c3 -5 1 -12 -5 -16 -5 -3 -10 1 -10 9 0 18 6 21 15 7z m73 -27 c-9 -8
-78 -13 -73 -5 3 5 21 9 41 9 19 0 34 -2 32 -4z m-1099 -66 c6 -18 7 -28 2
-23 -10 12 -25 55 -18 55 3 0 10 -15 16 -32z m891 22 c0 -5 -5 -10 -11 -10 -5
0 -7 5 -4 10 3 6 8 10 11 10 2 0 4 -4 4 -10z m80 3 c0 -1 -8 -7 -18 -12 -13
-7 -19 -6 -19 2 0 7 9 13 19 13 10 0 18 -1 18 -3z m-955 -73 c-3 -5 -1 -10 5
-10 6 0 8 -5 4 -11 -4 -8 -9 -7 -15 2 -7 12 -3 29 7 29 3 0 2 -4 -1 -10z m80
-11 c11 -17 -1 -21 -15 -4 -8 9 -8 15 -2 15 6 0 14 -5 17 -11z m-35 -50 c0 -6
-4 -7 -10 -4 -5 3 -10 11 -10 16 0 6 5 7 10 4 6 -3 10 -11 10 -16z m640 -13
c0 -2 -7 -6 -15 -10 -8 -3 -15 -1 -15 4 0 6 7 10 15 10 8 0 15 -2 15 -4z
m-585 -106 c10 -11 14 -20 9 -20 -5 0 -15 9 -22 20 -7 11 -11 20 -9 20 2 0 12
-9 22 -20z m53 -5 c-3 -3 -9 2 -12 12 -6 14 -5 15 5 6 7 -7 10 -15 7 -18z
m372 10 c0 5 3 5 7 2 3 -4 -2 -14 -13 -22 -33 -25 -36 -21 -25 34 1 2 8 -2 16
-9 8 -7 15 -9 15 -5z m-360 -55 c0 -5 -2 -10 -4 -10 -3 0 -8 5 -11 10 -3 6 -1
10 4 10 6 0 11 -4 11 -10z m-1 -27 c2 -1 -5 -1 -16 0 -11 0 -20 7 -20 14 0 10
4 10 16 1 9 -7 18 -13 20 -15z m270 3 c9 -10 7 -17 -6 -27 -9 -8 -14 -9 -10
-2 4 6 3 14 -3 18 -6 4 -8 11 -5 16 8 12 10 12 24 -5z m-67 -79 c-1 -4 -5 -14
-8 -22 -4 -8 -11 -15 -16 -15 -6 0 -5 6 2 15 12 14 7 19 -13 16 -5 -1 -6 3 -3
8 7 10 43 8 38 -2z m-60 -95 c-16 -24 -16 -24 -32 -4 -15 18 -17 18 -28 3 -10
-15 -11 -15 -11 1 -1 19 9 24 54 24 32 0 32 -1 17 -24z"/>
<path d="M2160 5395 c-9 -10 -9 -15 -1 -15 6 0 11 -5 11 -11 0 -6 -7 -8 -16
-5 -8 3 -12 2 -9 -4 14 -23 35 -10 33 20 -3 35 -2 34 -18 15z"/>
<path d="M1492 5090 c-1 -22 2 -40 6 -40 5 0 9 18 10 40 2 22 -1 40 -6 40 -5
0 -9 -18 -10 -40z"/>
<path d="M1737 5110 c10 -11 19 -20 21 -20 1 0 -2 9 -8 20 -6 11 -15 20 -20
20 -6 0 -2 -9 7 -20z"/>
<path d="M2230 5122 c0 -11 22 -32 33 -32 5 0 3 8 -4 17 -10 11 -10 14 -1 9 6
-4 12 -2 12 3 0 6 -9 11 -20 11 -11 0 -20 -4 -20 -8z"/>
<path d="M1940 5090 c0 -5 -6 -7 -14 -4 -8 3 -23 1 -33 -5 -17 -11 -17 -11 2
-10 33 2 45 -1 45 -11 0 -5 -13 -10 -30 -10 -30 0 -40 -13 -18 -26 7 -4 8 -3
4 4 -4 7 -2 12 3 12 6 0 11 -4 11 -10 0 -5 9 -10 20 -10 17 0 20 6 18 40 -1
22 -3 40 -5 40 -1 0 -3 -4 -3 -10z"/>
<path d="M2185 5090 c-4 -6 -15 -8 -25 -5 -10 3 -21 1 -25 -4 -4 -7 6 -9 25
-7 32 4 47 12 38 22 -3 3 -9 0 -13 -6z"/>
<path d="M2305 5052 c2 -53 28 -68 33 -19 2 15 -1 27 -7 27 -6 0 -11 5 -11 11
0 5 5 7 10 4 6 -3 10 -4 10 -1 0 3 -8 10 -19 15 -17 9 -18 6 -16 -37z"/>
<path d="M1682 5079 c2 -6 8 -10 13 -10 5 0 11 4 13 10 2 6 -4 11 -13 11 -9 0
-15 -5 -13 -11z"/>
<path d="M2081 5054 c0 -11 3 -14 6 -6 3 7 2 16 -1 19 -3 4 -6 -2 -5 -13z"/>
<path d="M2185 5057 c-23 -26 -24 -35 -7 -39 15 -4 19 1 19 23 0 16 -1 29 -1
29 -1 -1 -6 -6 -11 -13z"/>
<path d="M2135 5039 c-4 -6 -5 -13 -2 -16 7 -7 27 6 27 18 0 12 -17 12 -25 -2z"/>
<path d="M1490 5029 c0 -5 5 -7 10 -4 6 3 10 8 10 11 0 2 -4 4 -10 4 -5 0 -10
-5 -10 -11z"/>
<path d="M2375 5010 c3 -5 8 -10 11 -10 2 0 4 5 4 10 0 6 -5 10 -11 10 -5 0
-7 -4 -4 -10z"/>
<path d="M2765 5100 c-3 -5 -1 -10 4 -10 6 0 11 5 11 10 0 6 -2 10 -4 10 -3 0
-8 -4 -11 -10z"/>
<path d="M2687 5083 c-4 -3 -7 -11 -7 -17 0 -6 5 -4 10 4 5 8 10 10 10 5 0 -6
-5 -16 -11 -22 -7 -7 -6 -12 5 -16 9 -4 16 -2 16 3 0 6 7 10 15 10 13 0 13 3
3 20 -13 20 -29 26 -41 13z"/>
<path d="M2810 5040 c0 -5 5 -10 11 -10 5 0 7 5 4 10 -3 6 -8 10 -11 10 -2 0
-4 -4 -4 -10z"/>
<path d="M2093 4325 c0 -8 4 -12 9 -9 5 3 6 10 3 15 -9 13 -12 11 -12 -6z"/>
<path d="M1870 4089 c0 -15 18 -19 23 -6 3 8 -1 14 -9 14 -8 0 -14 -4 -14 -8z"/>
<path d="M830 5009 c0 -5 5 -7 10 -4 6 3 10 8 10 11 0 2 -4 4 -10 4 -5 0 -10
-5 -10 -11z"/>
<path d="M646 4771 c-4 -5 -2 -12 3 -15 5 -4 12 -2 15 3 4 5 2 12 -3 15 -5 4
-12 2 -15 -3z"/>
<path d="M3075 4720 c-3 -5 -2 -17 3 -26 7 -13 11 -12 26 10 16 25 16 26 -3
26 -11 0 -23 -4 -26 -10z"/>
<path d="M514 4548 c-10 -24 -29 -60 -41 -80 -13 -21 -21 -38 -18 -38 4 0 -1
-10 -9 -21 -8 -12 -12 -28 -9 -37 4 -9 2 -13 -4 -9 -13 8 -46 -70 -37 -85 5
-7 2 -8 -6 -3 -10 6 -12 3 -8 -13 4 -12 3 -20 -2 -17 -13 8 -92 -223 -85 -248
5 -18 4 -19 -5 -7 -9 12 -11 10 -7 -12 2 -15 1 -25 -3 -23 -4 2 -12 -13 -19
-34 -14 -48 -14 -54 2 -45 6 4 4 -2 -6 -13 -10 -12 -19 -31 -21 -44 -2 -13 -8
-42 -15 -65 -20 -74 -52 -307 -46 -336 4 -17 2 -35 -5 -43 -15 -19 -16 -426 0
-535 5 -41 10 -82 11 -90 0 -8 5 -40 10 -70 6 -30 12 -72 15 -94 3 -21 13 -50
22 -64 10 -16 12 -23 4 -18 -10 6 -11 1 -7 -21 4 -15 9 -35 12 -43 4 -8 7 -19
7 -25 1 -5 8 -37 15 -69 10 -44 16 -55 23 -45 8 11 9 10 4 -4 -7 -21 14 -107
27 -107 4 0 5 -4 2 -10 -3 -5 0 -24 8 -42 8 -18 32 -77 52 -130 29 -76 41 -95
54 -91 11 3 12 2 3 -4 -9 -7 -8 -17 6 -46 10 -21 20 -36 23 -33 2 2 5 -6 5
-19 1 -13 8 -33 16 -44 14 -20 15 -18 41 29 25 46 38 82 18 52 -7 -11 -9 -11
-14 1 -4 10 1 14 14 13 26 -1 132 182 116 202 -7 9 -6 11 6 6 12 -4 20 2 29
23 7 15 20 40 31 55 10 16 15 34 11 40 -4 7 -4 10 1 6 8 -7 45 43 49 67 2 5
18 34 37 64 19 30 33 58 31 63 -1 4 3 8 9 8 5 0 7 5 4 10 -4 6 -11 7 -17 4 -7
-4 -8 -2 -4 4 4 6 13 9 20 6 8 -3 17 3 21 15 8 27 10 27 438 21 241 -3 367 -2
367 5 0 6 3 6 8 0 4 -6 12 -11 19 -10 16 0 30 15 14 15 -7 0 -9 5 -6 10 3 6
-1 10 -9 10 -9 0 -16 5 -16 11 0 5 5 7 11 3 7 -4 7 1 -1 16 -18 34 -70 191
-70 212 0 11 -3 17 -7 15 -5 -3 -8 5 -9 16 0 12 -4 36 -7 52 -21 97 -29 216
-24 370 5 196 21 290 74 440 14 39 26 75 27 80 2 6 19 45 39 88 l36 77 -22 38
c-12 20 -28 42 -37 49 -8 7 -12 13 -7 13 8 0 -30 80 -39 80 -3 0 -3 -4 0 -8 3
-5 -1 -9 -9 -9 -10 0 -11 5 -5 16 9 17 -14 71 -31 71 -6 0 -8 4 -5 9 3 5 -4
20 -15 35 -11 14 -18 26 -14 26 3 0 -2 12 -13 28 -10 15 -34 55 -52 89 -19 34
-37 60 -41 57 -4 -2 -11 1 -15 7 -4 8 -3 9 4 5 7 -4 12 -5 12 -2 0 11 -40 71
-44 66 -2 -3 -8 -1 -13 4 -5 5 -3 6 5 2 16 -9 15 -1 -2 27 -8 12 -25 42 -39
67 l-25 45 -414 3 -415 2 -19 -42z m873 -90 c-3 -8 -6 -5 -6 6 -1 11 2 17 5
13 3 -3 4 -12 1 -19z m128 -158 c3 -6 -1 -7 -9 -4 -18 7 -21 14 -7 14 6 0 13
-4 16 -10z m-510 -594 c20 -20 23 -30 16 -48 -4 -13 -6 -29 -3 -37 3 -9 0 -11
-9 -6 -7 5 -2 -7 11 -25 13 -18 19 -30 12 -26 -7 4 -12 1 -12 -9 0 -10 5 -13
13 -9 6 4 4 -2 -6 -14 -11 -11 -16 -26 -12 -32 3 -6 3 -10 -2 -9 -19 3 -34 -2
-29 -10 9 -13 -86 0 -111 15 -16 10 -23 24 -23 44 0 25 4 30 25 30 14 0 29 -8
35 -20 13 -24 33 -26 50 -5 10 11 9 18 -3 30 -9 8 -23 15 -31 15 -24 0 -19 34
7 45 27 12 29 40 3 40 -25 0 -32 -22 -9 -29 15 -4 15 -4 -2 -3 -11 1 -26 -2
-34 -7 -10 -6 -12 -5 -7 2 5 8 0 12 -13 12 -16 0 -20 6 -18 29 1 16 5 27 8 25
4 -2 12 3 19 11 21 25 96 19 125 -9z m-788 -68 c-3 -8 -6 -5 -6 6 -1 11 2 17
5 13 3 -3 4 -12 1 -19z m627 4 c3 -5 -1 -9 -9 -9 -8 0 -15 4 -15 9 0 4 4 8 9
8 6 0 12 -4 15 -8z m-152 -286 c9 8 48 -47 48 -68 0 -42 -18 -58 -65 -58 l-45
0 0 64 c0 61 1 64 23 60 12 -2 16 -2 10 2 -7 3 -13 10 -13 16 0 6 8 4 18 -5
10 -10 21 -15 24 -11z m532 3 c10 8 11 -15 7 -116 -1 -7 -12 -12 -25 -11 -14
1 -23 5 -21 8 2 3 -3 16 -11 30 l-13 25 -1 -32 c0 -23 -5 -33 -15 -33 -12 0
-15 13 -15 60 0 51 3 60 18 60 9 0 25 -12 35 -27 l18 -28 -3 37 c-3 25 -1 35
6 28 6 -6 14 -6 20 -1z m-287 -5 c-3 -3 -2 -17 3 -30 9 -22 8 -23 -15 -14 -14
5 -25 6 -25 1 0 -5 9 -11 20 -14 26 -7 36 -33 20 -52 -20 -24 -72 -18 -103 11
-15 14 -35 23 -43 20 -20 -8 -18 -28 4 -25 30 3 42 -1 42 -12 0 -6 -18 -9 -46
-7 l-46 3 -1 58 -2 57 47 0 c36 0 48 -4 48 -15 0 -10 -10 -15 -31 -15 -18 0
-28 -4 -24 -10 4 -6 16 -10 28 -8 15 2 22 -2 21 -13 -1 -11 7 -16 23 -16 14 0
29 -6 33 -13 5 -9 9 -9 14 -1 7 10 0 14 -41 27 -7 2 -13 17 -13 33 0 28 3 30
43 34 23 2 44 4 46 5 2 1 2 -1 -2 -4z m63 -13 c-5 -11 -10 -30 -9 -43 1 -20 2
-19 9 6 5 16 15 33 22 37 19 13 72 11 86 -3 21 -21 13 -30 -25 -26 -35 3 -38
1 -41 -23 -3 -27 21 -48 33 -29 4 6 1 10 -4 10 -6 0 -11 7 -11 15 0 10 10 15
30 15 28 0 30 -3 30 -35 0 -34 -1 -35 -39 -35 -49 0 -71 8 -71 26 0 8 -4 14
-10 14 -5 0 -10 -9 -10 -20 0 -11 -7 -20 -15 -20 -12 0 -15 13 -15 59 0 54 2
60 23 64 12 2 23 5 25 6 1 0 -2 -8 -8 -18z"/>
<path d="M662 3285 c2 -39 12 -45 28 -16 12 23 3 51 -16 51 -10 0 -14 -10 -12
-35z"/>
<path d="M2188 4405 l21 -16 -32 -30 -32 -31 38 27 c20 15 37 30 37 33 0 7
-33 31 -45 32 -5 0 0 -7 13 -15z"/>
<path d="M2810 3811 c0 -6 15 -11 33 -13 l32 -3 3 -97 c4 -130 22 -128 22 2
l0 100 35 0 c19 0 35 5 35 10 0 6 -33 10 -80 10 -44 0 -80 -4 -80 -9z"/>
<path d="M3010 3710 c0 -67 4 -110 10 -110 6 0 10 25 10 55 l0 56 63 -3 c67
-3 63 1 66 -75 1 -18 6 -33 11 -33 6 0 10 43 10 110 0 81 -3 110 -12 110 -9 0
-13 -15 -13 -42 l0 -43 -62 -3 -63 -3 0 46 c0 25 -4 45 -10 45 -6 0 -10 -43
-10 -110z"/>
<path d="M3230 3710 l0 -110 80 0 c57 0 80 4 80 13 0 9 -18 11 -65 9 l-65 -4
0 45 0 45 57 -1 c34 0 59 5 61 12 2 7 -16 11 -57 11 l-61 0 0 35 0 35 65 0
c37 0 65 4 65 10 0 6 -33 10 -80 10 l-80 0 0 -110z"/>
<path d="M2253 3480 c-41 -17 -56 -75 -28 -104 8 -8 39 -22 69 -30 30 -9 56
-22 59 -30 14 -37 -66 -51 -96 -16 -9 11 -23 17 -32 14 -45 -18 16 -74 80 -74
54 0 95 30 95 70 0 38 -20 56 -84 74 -61 18 -74 30 -56 51 16 19 64 19 80 0
15 -19 50 -20 50 -2 0 38 -88 68 -137 47z"/>
<path d="M2493 3475 c-39 -17 -63 -61 -63 -115 0 -75 43 -120 115 -120 72 0
115 45 115 120 0 56 -24 99 -65 116 -42 17 -61 17 -102 -1z m97 -43 c13 -10
23 -33 27 -57 13 -104 -116 -136 -141 -34 -17 76 58 136 114 91z"/>
<path d="M2710 3360 c0 -113 1 -120 20 -120 18 0 20 7 20 55 l0 55 55 0 c48 0
55 2 55 20 0 18 -7 20 -56 20 -54 0 -55 0 -52 28 2 21 8 27 28 28 14 1 40 2
58 3 21 1 32 6 32 16 0 12 -16 15 -80 15 l-80 0 0 -120z"/>
<path d="M2900 3466 c0 -9 12 -16 33 -18 l32 -3 3 -102 c2 -95 4 -103 22 -103
14 0 20 7 20 23 1 12 2 58 3 102 l2 80 38 3 c24 2 37 8 37 18 0 11 -19 14 -95
14 -76 0 -95 -3 -95 -14z"/>
<path d="M3100 3474 c0 -4 14 -58 32 -121 28 -102 34 -113 54 -113 19 0 24 7
30 38 15 87 31 146 37 132 3 -8 13 -50 22 -93 15 -70 19 -78 38 -75 17 2 26
19 49 98 43 149 42 140 15 140 -21 0 -26 -8 -42 -80 -10 -44 -21 -77 -24 -74
-3 3 -13 38 -21 77 -14 66 -17 72 -41 75 -25 3 -27 0 -39 -65 -19 -102 -25
-104 -47 -17 -16 67 -22 80 -41 82 -12 2 -22 0 -22 -4z"/>
<path d="M3486 3472 c-3 -5 -23 -59 -45 -121 l-39 -112 26 3 c19 2 28 10 30
26 3 20 9 22 57 22 48 0 53 -2 59 -25 5 -18 13 -25 31 -25 l24 0 -42 120 c-40
113 -43 120 -69 120 -15 0 -29 -4 -32 -8z m43 -64 c4 -13 11 -35 15 -50 6 -27
5 -28 -29 -28 -19 0 -35 1 -35 3 0 10 33 97 36 97 3 0 8 -10 13 -22z"/>
<path d="M3670 3360 c0 -113 1 -120 20 -120 17 0 20 7 20 50 l0 50 38 0 c21 0
43 -5 50 -12 7 -7 12 -29 12 -50 0 -34 3 -38 26 -38 24 0 25 1 18 48 -3 26
-10 52 -14 57 -5 6 -2 19 6 29 19 27 18 70 -4 89 -14 13 -38 17 -95 17 l-77 0
0 -120z m134 74 c23 -23 8 -53 -30 -60 -47 -9 -64 0 -64 34 0 16 3 31 6 34 11
12 75 6 88 -8z"/>
<path d="M3910 3360 l0 -121 87 3 c73 3 87 6 89 21 2 15 -7 17 -67 17 l-69 0
0 35 0 35 60 0 c53 0 60 2 60 20 0 18 -7 20 -61 20 -60 0 -60 0 -57 28 3 28 4
29 86 31 30 1 42 5 42 16 0 12 -16 15 -85 15 l-85 0 0 -120z"/>
<path d="M3033 3115 c-79 -34 -87 -182 -12 -221 33 -17 89 -18 122 -3 53 24
74 117 41 180 -15 30 -66 59 -101 59 -10 -1 -32 -7 -50 -15z m94 -40 c38 -27
42 -105 7 -140 -21 -21 -77 -19 -98 4 -18 20 -24 72 -12 109 13 39 66 53 103
27z"/>
<path d="M1900 2999 l0 -121 70 4 c60 3 74 8 98 31 24 24 27 35 27 93 0 60 -3
68 -28 90 -24 20 -39 24 -98 24 l-69 0 0 -121z m137 65 c7 -10 13 -37 13 -61
0 -54 -26 -83 -75 -83 l-35 0 0 78 c0 43 3 81 6 85 12 12 79 -2 91 -19z"/>
<path d="M2140 3000 l0 -120 89 0 c84 0 89 1 84 20 -5 17 -14 20 -69 20 l-64
0 0 35 0 35 60 0 c53 0 60 2 60 20 0 18 -7 20 -61 20 -60 0 -60 0 -57 28 3 26
5 27 63 28 47 1 61 5 63 18 3 14 -9 16 -82 16 l-86 0 0 -120z"/>
<path d="M2373 3001 c36 -103 45 -121 63 -121 18 0 27 16 57 103 20 56 39 110
42 120 6 13 2 17 -18 17 -24 0 -28 -7 -52 -86 -14 -47 -28 -84 -31 -81 -2 2
-15 40 -27 83 -21 72 -25 79 -49 82 l-27 3 42 -120z"/>
<path d="M2580 3000 l0 -120 84 0 c75 0 84 2 89 20 5 19 0 20 -64 20 l-69 0 0
35 0 35 60 0 c53 0 60 2 60 20 0 18 -7 20 -61 20 -60 0 -60 0 -57 28 3 26 6
27 66 30 46 2 62 7 62 17 0 12 -17 15 -85 15 l-85 0 0 -120z"/>
<path d="M2800 3000 l0 -120 80 0 c73 0 80 2 80 20 0 18 -7 20 -60 20 l-60 0
0 100 c0 93 -1 100 -20 100 -19 0 -20 -7 -20 -120z"/>
<path d="M3250 3000 c0 -113 1 -120 20 -120 17 0 20 7 20 45 l0 45 50 0 c62 0
90 23 90 75 0 57 -27 75 -110 75 l-70 0 0 -120z m126 69 c26 -29 2 -59 -46
-59 -39 0 -40 1 -40 33 0 19 3 37 7 40 12 13 64 3 79 -14z"/>
<path d="M3480 3000 c0 -113 1 -120 20 -120 18 0 20 8 22 98 l3 97 25 -98 c23
-93 25 -98 49 -95 22 3 27 12 47 91 12 49 25 91 28 94 3 4 6 -37 6 -90 0 -90
1 -97 20 -97 19 0 20 7 20 121 l0 120 -37 -3 -37 -3 -21 -82 c-11 -45 -23 -84
-26 -87 -3 -4 -11 18 -18 47 -28 125 -29 127 -66 127 l-35 0 0 -120z"/>
<path d="M3780 3000 l0 -120 84 0 c75 0 84 2 89 20 5 19 0 20 -64 20 l-69 0 0
35 0 35 60 0 c53 0 60 2 60 20 0 18 -7 20 -61 20 -60 0 -60 0 -57 28 3 26 6
27 66 30 46 2 62 7 62 17 0 12 -17 15 -85 15 l-85 0 0 -120z"/>
<path d="M4000 3000 c0 -113 1 -120 20 -120 18 0 20 7 20 80 0 44 3 80 8 80 4
0 27 -36 52 -80 35 -62 50 -80 68 -80 21 0 22 3 22 110 0 61 0 113 0 118 1 4
-8 8 -19 10 -19 3 -20 -3 -23 -80 l-3 -83 -48 83 c-40 67 -53 82 -73 82 l-24
0 0 -120z"/>
<path d="M4230 3105 c0 -14 6 -16 50 -19 12 -1 16 -21 18 -103 2 -94 4 -103
22 -103 18 0 20 9 22 103 l3 102 35 0 c25 0 36 5 38 18 3 15 -6 17 -92 17 -79
0 -96 -3 -96 -15z"/>
<path d="M2733 2758 c-41 -11 -63 -51 -63 -113 0 -60 40 -105 93 -105 49 0 66
8 82 41 18 35 19 39 1 39 -7 0 -16 -9 -19 -20 -7 -26 -49 -44 -82 -36 -52 13
-70 112 -28 158 22 24 75 23 98 -2 21 -23 35 -26 35 -6 0 32 -67 58 -117 44z"/>
<path d="M2880 2754 c0 -4 16 -32 35 -64 27 -44 35 -69 35 -104 0 -34 4 -46
15 -46 11 0 15 12 15 48 0 36 8 60 35 105 39 65 40 67 23 67 -7 0 -26 -23 -42
-51 l-29 -52 -18 24 c-10 13 -24 36 -30 52 -10 23 -39 39 -39 21z"/>
<path d="M3101 2735 c-27 -35 -34 -76 -21 -124 13 -49 42 -71 93 -71 40 0 87
34 87 65 0 23 -14 18 -38 -15 -47 -63 -122 -22 -122 66 0 55 26 84 75 84 24 0
39 -6 47 -20 13 -20 38 -28 38 -12 0 5 -9 18 -20 30 -31 33 -111 31 -139 -3z"/>
<path d="M3300 2650 l0 -110 70 0 c78 0 99 19 23 21 -27 1 -51 1 -55 0 -5 0
-8 44 -8 99 0 82 -3 100 -15 100 -12 0 -15 -19 -15 -110z"/>
<path d="M3470 2650 l0 -110 75 0 c91 0 101 18 13 22 l-63 3 0 40 0 40 58 3
c76 4 74 22 -3 22 l-60 0 0 35 0 35 65 0 c37 0 65 4 65 10 0 6 -32 10 -75 10
l-75 0 0 -110z"/>
<path d="M962 2296 c-6 -13 -96 -175 -201 -360 l-191 -336 46 -72 c454 -712
1206 -1208 2044 -1347 106 -18 350 -43 357 -37 1 1 -90 159 -203 351 -113 191
-206 351 -207 355 -1 4 92 168 207 365 151 258 206 359 197 365 -7 4 -42 10
-77 14 -162 17 -414 102 -570 194 -183 106 -368 275 -484 440 l-65 92 -421 0
-421 0 -11 -24z m901 -657 c37 -46 17 -92 -60 -140 l-38 -24 58 -3 c49 -3 57
-6 57 -22 0 -18 -7 -20 -89 -20 l-88 0 5 25 c2 15 27 45 58 71 62 53 74 94 28
94 -17 0 -28 -6 -31 -20 -6 -22 -54 -29 -52 -7 4 70 106 101 152 46z m-379
-405 c19 -59 36 -59 30 -1 -2 18 1 39 6 47 11 16 23 6 57 -46 12 -17 12 -17 8
6 -5 26 9 59 21 48 3 -4 8 -28 9 -53 2 -26 5 -48 7 -51 3 -2 12 21 22 51 20
65 39 70 61 18 26 -63 29 -83 11 -83 -9 0 -16 5 -16 10 0 6 -9 10 -19 10 -11
0 -23 -4 -26 -10 -3 -5 -21 -10 -39 -10 -26 0 -35 6 -45 27 -9 20 -14 24 -21
13 -4 -7 -6 -19 -3 -27 7 -17 -50 -18 -77 -1 -16 10 -24 10 -40 0 -36 -22 -39
-13 -17 48 28 78 47 79 71 4z m286 6 c0 -49 1 -50 30 -50 17 0 30 -4 30 -10 0
-5 -20 -10 -45 -10 l-45 0 0 53 c0 30 3 57 7 60 16 17 23 3 23 -43z m72 30
c13 -20 13 -20 29 1 27 37 42 19 19 -23 -11 -21 -20 -47 -20 -58 0 -11 -7 -20
-15 -20 -10 0 -15 10 -15 28 0 15 -7 36 -15 46 -17 23 -20 46 -5 46 5 0 15 -9
22 -20z m142 14 c9 -3 16 -13 16 -21 0 -11 -7 -13 -32 -8 -22 5 -30 4 -23 -3
6 -6 19 -12 29 -14 10 -1 24 -10 29 -20 24 -37 -54 -68 -83 -33 -18 21 -3 32
22 16 14 -9 24 -9 31 -2 7 7 5 12 -6 16 -9 3 -24 7 -32 10 -22 7 -29 33 -15
50 13 16 38 19 64 9z m73 -57 c1 -48 -2 -57 -16 -57 -14 0 -18 10 -20 51 -2
54 4 72 22 66 7 -2 13 -28 14 -60z m91 51 c21 -21 13 -30 -18 -23 -39 9 -39
-3 1 -17 25 -8 30 -15 27 -37 -3 -22 -8 -26 -41 -29 -27 -2 -39 1 -43 13 -9
23 4 31 26 17 24 -15 30 -15 30 -1 0 5 -13 15 -30 20 -22 8 -30 17 -30 34 0
33 52 49 78 23z"/>
<path d="M1670 1238 c0 -9 5 -20 10 -23 13 -8 13 5 0 25 -8 13 -10 13 -10 -2z"/>
<path d="M1440 1231 c0 -6 5 -13 10 -16 6 -3 10 1 10 9 0 9 -4 16 -10 16 -5 0
-10 -4 -10 -9z"/>
<path d="M4405 2233 c-42 -66 -155 -191 -235 -261 -255 -224 -573 -360 -907
-388 l-80 -7 -71 -121 c-38 -66 -129 -221 -201 -344 -72 -123 -135 -231 -141
-241 -7 -14 32 -88 196 -367 112 -191 208 -352 213 -357 13 -13 286 9 441 34
807 133 1536 598 1994 1274 l48 70 -413 5 -412 5 -194 340 c-107 187 -200 351
-207 363 l-13 24 -18 -29z m-355 -1003 l0 -120 -25 0 c-25 0 -25 1 -25 80 l0
80 -31 0 c-24 0 -30 4 -27 18 2 9 13 18 26 20 13 2 28 12 35 23 6 10 20 19 29
19 16 0 18 -12 18 -120z m-384 -268 c32 -21 17 -72 -21 -72 -18 0 -25 -5 -25
-20 0 -11 -7 -20 -15 -20 -12 0 -15 13 -15 60 l0 60 33 0 c17 0 37 -4 43 -8z
m64 -42 c0 -49 1 -50 29 -50 26 0 31 5 46 50 20 60 39 64 60 13 26 -63 29 -83
11 -83 -9 0 -16 5 -16 10 0 6 -9 10 -19 10 -11 0 -23 -4 -26 -10 -3 -5 -31
-10 -61 -10 l-54 0 0 60 c0 47 3 60 15 60 11 0 15 -12 15 -50z m217 19 l18
-30 5 27 c3 15 11 29 18 32 9 3 12 -13 12 -57 0 -73 -19 -82 -49 -23 l-20 37
-1 -37 c0 -27 -4 -38 -15 -38 -12 0 -15 13 -15 60 0 69 17 80 47 29z m122 -6
l20 -38 1 38 c0 26 4 37 15 37 12 0 15 -13 15 -60 0 -70 -16 -79 -49 -27 l-21
32 0 -32 c0 -23 -5 -33 -15 -33 -12 0 -15 13 -15 60 0 72 19 81 49 23z m101
-23 c0 -47 -3 -60 -15 -60 -12 0 -15 13 -15 60 0 47 3 60 15 60 12 0 15 -13
15 -60z m68 23 l22 -38 0 38 c0 26 4 37 15 37 12 0 15 -13 15 -60 0 -51 -3
-60 -18 -60 -11 0 -25 14 -35 33 l-16 32 0 -32 c-1 -22 -6 -33 -16 -33 -12 0
-15 13 -15 60 0 71 15 79 48 23z m160 25 c20 -20 13 -27 -25 -25 -32 2 -38 -1
-41 -19 -3 -24 22 -49 39 -39 8 6 7 10 -2 16 -19 11 2 32 27 27 13 -2 20 -13
22 -34 3 -31 2 -31 -42 -32 -36 -1 -49 3 -61 21 -19 27 -19 47 1 75 17 24 62
30 82 10z"/>
<path d="M3620 925 c0 -8 7 -15 15 -15 8 0 15 7 15 15 0 8 -7 15 -15 15 -8 0
-15 -7 -15 -15z"/>
<path d="M3830 915 c0 -8 4 -15 10 -15 5 0 7 7 4 15 -4 8 -8 15 -10 15 -2 0
-4 -7 -4 -15z"/>
</g>
</svg>
