<?xml version="1.0" standalone="no"?>
<!DOCTYPE svg PUBLIC "-//W3C//DTD SVG 20010904//EN"
 "http://www.w3.org/TR/2001/REC-SVG-20010904/DTD/svg10.dtd">
<svg version="1.0" xmlns="http://www.w3.org/2000/svg"
 width="388.000000pt" height="130.000000pt" viewBox="0 0 388.000000 130.000000"
 preserveAspectRatio="xMidYMid meet">
<metadata>
Created by potrace 1.16, written by Peter Selinger 2001-2019
</metadata>
<g transform="translate(0.000000,130.000000) scale(0.100000,-0.100000)"
fill="#000000" stroke="none">
<path d="M1085 1275 c-464 -73 -676 -306 -458 -505 88 -80 284 -161 425 -174
44 -4 46 -4 15 3 -37 8 -61 21 -38 21 6 0 11 8 9 18 -2 10 2 16 10 14 8 -1 11
2 8 6 -3 5 3 20 14 32 11 13 20 31 20 40 0 9 8 25 19 34 23 21 35 87 18 98 -7
4 -22 8 -34 8 -14 0 -23 6 -23 15 0 8 -8 15 -18 15 -10 0 -22 3 -25 7 -12 12
-57 12 -64 0 -4 -6 -9 -28 -10 -48 -3 -28 2 -44 22 -67 22 -26 25 -39 25 -105
l0 -76 -72 20 c-95 26 -242 97 -295 143 -146 127 -92 291 130 397 125 59 387
121 387 91 0 -6 15 -5 43 3 30 9 81 12 163 8 65 -2 139 -4 163 -3 61 1 194
-25 288 -56 102 -34 116 -49 38 -39 -33 4 -81 7 -107 6 -26 -1 -49 3 -53 8 -3
6 -12 8 -20 4 -9 -3 -23 1 -32 8 -9 8 -14 9 -10 3 4 -6 -6 -11 -26 -11 -18 0
-59 -10 -91 -22 -63 -22 -79 -26 -58 -12 28 17 -49 22 -84 5 -43 -21 -49 -29
-19 -32 13 -1 26 5 29 13 3 8 10 15 16 15 6 0 8 -4 5 -10 -3 -5 0 -10 7 -10
17 -1 -30 -26 -64 -34 -21 -5 -31 -1 -44 16 -14 20 -16 20 -9 3 15 -43 15 -65
1 -65 -8 0 -16 -7 -20 -15 -8 -22 20 -19 45 6 20 20 21 20 42 2 19 -16 20 -16
8 0 -8 10 -9 17 -3 17 6 0 16 -8 22 -17 9 -17 11 -16 29 5 16 19 51 31 51 18
0 -2 3 -12 6 -20 5 -12 2 -15 -9 -10 -9 3 -24 1 -34 -5 -14 -8 -15 -11 -3 -12
8 -1 19 -1 23 0 5 1 7 -6 5 -16 -3 -17 -16 -19 -95 -14 -7 1 -13 7 -13 15 0
11 -7 13 -29 6 -16 -4 -32 -6 -35 -2 -3 3 -6 1 -6 -5 0 -5 -9 -20 -20 -33 -41
-47 -17 -118 36 -107 17 3 35 3 40 -1 13 -8 26 -55 29 -98 2 -39 24 -94 37
-94 16 0 58 52 58 71 0 11 5 19 11 19 7 0 9 11 6 29 -5 22 0 34 19 51 25 25
33 53 11 44 -13 -5 -64 73 -54 83 3 2 10 -4 16 -14 26 -46 26 -46 60 -29 30
16 36 41 7 30 -7 -3 -16 2 -20 12 -5 13 -2 15 11 9 10 -4 27 -10 38 -13 29 -7
55 -32 55 -54 0 -10 5 -18 10 -18 6 0 10 7 10 15 0 8 11 22 24 30 23 15 25 15
50 -9 30 -31 50 -34 41 -7 -4 15 1 21 26 30 29 10 31 14 25 42 -5 25 -3 30 10
25 9 -3 12 -2 9 5 -4 5 2 18 13 27 23 20 13 52 -16 53 -13 0 -12 3 6 11 18 9
26 7 42 -7 15 -14 20 -15 20 -4 0 8 9 25 19 38 l18 24 44 -27 c106 -63 159
-132 159 -208 0 -65 -22 -109 -80 -161 -44 -40 -149 -105 -122 -76 15 16 16
55 1 64 -6 4 -8 14 -5 22 3 8 1 11 -4 8 -6 -3 -10 0 -10 7 0 9 -3 9 -10 -2 -9
-13 -12 -12 -25 4 -14 19 -16 18 -55 -9 -26 -18 -39 -34 -35 -42 3 -8 5 -20 5
-28 0 -15 38 -27 46 -14 3 5 9 9 14 9 14 0 41 -31 35 -40 -17 -27 -329 -100
-347 -82 -6 6 -21 7 -42 1 -42 -13 -265 -13 -298 0 -20 8 -34 7 -53 -3 -25
-13 -18 -15 82 -21 397 -27 787 86 888 259 51 87 29 186 -59 263 -142 125
-398 194 -714 192 -92 -1 -203 -7 -247 -14z"/>
<path d="M993 1188 c5 -14 -1 -17 -34 -16 -21 0 -41 3 -43 7 -3 4 -30 6 -60 5
-39 -2 -64 -9 -82 -23 -15 -12 -21 -21 -13 -21 11 0 11 -2 -1 -10 -11 -7 -11
-10 -2 -10 7 0 11 -4 8 -9 -4 -5 5 -8 18 -7 37 4 50 -7 37 -32 -15 -29 -14
-61 4 -78 8 -8 20 -23 27 -33 15 -21 88 -55 88 -41 0 5 -5 12 -10 15 -6 4 -8
11 -5 16 3 5 -1 6 -9 3 -18 -7 -34 22 -20 36 5 5 23 6 39 2 25 -7 33 -4 53 20
14 16 38 36 56 45 31 17 37 19 57 22 6 0 8 8 5 17 -4 9 -1 24 6 33 12 14 11
15 -6 1 -20 -15 -22 -15 -43 2 -9 7 -18 4 -30 -11 -14 -16 -22 -18 -33 -11
-13 9 -11 14 13 35 26 23 37 43 18 30 -5 -3 -17 3 -27 12 -16 16 -17 16 -11 1z"/>
<path d="M2222 603 c-21 -8 -42 -60 -42 -103 0 -39 -1 -40 -35 -40 l-35 0 0
-50 0 -50 35 0 35 0 0 -175 0 -175 60 0 60 0 0 175 0 175 45 0 45 0 0 50 0 50
-46 0 c-44 0 -45 1 -42 28 3 24 7 27 46 30 l42 3 0 45 0 44 -77 -1 c-43 0 -84
-3 -91 -6z"/>
<path d="M3590 510 l0 -99 -36 24 c-30 20 -49 25 -100 25 -120 0 -146 -31
-152 -182 -6 -143 4 -205 38 -240 26 -25 35 -28 98 -28 57 0 76 4 106 25 45
31 46 31 46 0 0 -24 3 -25 60 -25 l60 0 0 300 0 300 -60 0 -60 0 0 -100z m-16
-156 c13 -5 16 -25 16 -119 0 -129 3 -125 -90 -125 -74 0 -80 9 -80 125 0 116
6 125 80 125 32 0 65 -3 74 -6z"/>
<path d="M62 555 c-45 -37 -57 -96 -57 -270 0 -140 2 -153 25 -200 14 -27 36
-56 50 -62 33 -17 299 -18 334 -1 35 15 54 48 61 100 3 24 8 55 10 71 l5 27
-64 0 -63 0 -6 -46 c-2 -26 -11 -50 -18 -55 -8 -5 -49 -9 -91 -9 -101 0 -108
7 -109 113 -1 150 2 221 12 239 8 15 23 18 100 18 87 0 90 -1 99 -26 6 -14 10
-36 10 -50 0 -23 3 -24 60 -24 l60 0 0 50 c0 61 -19 111 -51 134 -19 13 -51
16 -180 16 -153 0 -158 -1 -187 -25z"/>
<path d="M600 235 l0 -225 60 0 60 0 0 154 c0 105 4 157 11 162 7 4 43 9 80
12 l69 5 0 58 0 59 -40 0 c-32 0 -48 -7 -80 -36 l-40 -36 0 36 0 36 -60 0 -60
0 0 -225z"/>
<path d="M995 438 c-20 -18 -28 -36 -32 -71 l-6 -47 57 0 c51 0 57 2 66 25 9
25 13 26 72 23 l63 -3 3 -52 3 -52 -89 6 c-114 7 -158 -6 -178 -53 -27 -64
-12 -174 26 -194 10 -6 52 -10 93 -10 62 0 80 4 111 25 l36 24 0 -24 c0 -24 3
-25 65 -25 l65 0 0 168 c0 92 -5 185 -10 206 -15 67 -24 71 -179 74 -133 3
-139 3 -166 -20z m225 -282 l0 -45 -55 -12 c-75 -17 -105 -4 -105 45 0 45 18
55 98 56 l62 0 0 -44z"/>
<path d="M1420 457 c0 -6 91 -412 96 -429 4 -15 18 -18 79 -18 l74 0 10 38 c6
20 20 80 31 132 20 91 26 108 34 99 2 -2 16 -62 32 -134 l29 -130 72 -3 c61
-2 73 0 81 15 5 10 28 106 51 213 23 107 44 201 46 208 3 9 -12 12 -54 12
l-58 0 -22 -137 c-27 -167 -31 -181 -41 -162 -4 8 -20 68 -34 134 -38 170 -35
165 -100 165 -57 0 -70 -8 -79 -50 -35 -161 -60 -260 -66 -260 -3 0 -17 64
-30 143 -13 78 -26 148 -29 155 -2 8 -25 12 -63 12 -32 0 -59 -1 -59 -3z"/>
<path d="M2514 449 c-11 -6 -29 -25 -40 -42 -16 -28 -19 -52 -19 -172 0 -216
13 -229 220 -223 124 3 127 4 150 30 30 35 38 89 34 231 -4 123 -17 159 -65
177 -33 13 -253 12 -280 -1z m221 -214 l0 -120 -76 -3 -76 -3 -7 32 c-3 17 -6
60 -6 94 0 34 3 77 6 94 l7 32 76 -3 76 -3 0 -120z"/>
<path d="M2960 235 l0 -225 60 0 60 0 0 154 0 154 31 11 c18 6 54 11 80 11
l49 0 0 60 0 60 -38 0 c-27 0 -47 -8 -72 -30 -44 -37 -50 -37 -50 0 l0 30 -60
0 -60 0 0 -225z"/>
</g>
</svg>
