<?xml version="1.0" standalone="no"?>
<!DOCTYPE svg PUBLIC "-//W3C//DTD SVG 20010904//EN"
 "http://www.w3.org/TR/2001/REC-SVG-20010904/DTD/svg10.dtd">
<svg version="1.0" xmlns="http://www.w3.org/2000/svg"
 width="1200.000000pt" height="408.000000pt" viewBox="0 0 1200.000000 408.000000"
 preserveAspectRatio="xMidYMid meet">
<metadata>
Created by potrace 1.16, written by Peter Selinger 2001-2019
</metadata>
<g transform="translate(0.000000,408.000000) scale(0.100000,-0.100000)"
fill="#000000" stroke="none">
<path d="M5750 3770 c-165 -32 -326 -99 -425 -177 -91 -72 -182 -182 -163
-197 1 -2 65 9 140 24 244 50 576 83 616 61 l22 -12 0 -424 0 -425 43 0 42 0
0 421 c0 479 -6 449 87 449 122 0 465 -46 630 -85 34 -8 64 -12 66 -10 7 7
-57 92 -105 138 -95 91 -196 150 -344 200 -167 58 -422 73 -609 37z"/>
<path d="M5585 3375 c-169 -17 -457 -63 -467 -73 -5 -5 -9 -45 -9 -88 0 -129
38 -217 138 -322 64 -66 150 -126 233 -164 62 -28 220 -82 225 -77 1 2 10 38
18 79 9 41 36 173 61 294 26 120 46 242 46 271 0 92 -32 102 -245 80z"/>
<path d="M6180 3381 c-37 -10 -52 -47 -44 -111 5 -51 108 -564 119 -601 5 -16
10 -16 68 0 153 44 262 103 362 194 120 109 167 209 166 351 0 48 -1 90 -3 91
-2 2 -73 15 -158 29 -233 38 -466 59 -510 47z"/>
<path d="M4820 2240 l0 -90 80 0 80 0 0 -200 0 -200 120 0 120 0 0 200 0 200
80 0 80 0 0 90 0 90 -280 0 -280 0 0 -90z"/>
<path d="M5532 2303 c-9 -24 -81 -212 -188 -490 l-24 -63 119 0 119 0 10 38
c5 20 29 92 53 160 31 89 45 118 52 107 4 -9 30 -80 57 -158 l48 -142 117 -3
c92 -2 116 0 113 10 -3 7 -52 138 -109 290 l-104 278 -126 0 -127 0 -10 -27z"/>
<path d="M5950 2240 l0 -90 80 0 80 0 0 -200 0 -200 120 0 120 0 0 200 0 200
80 0 80 0 0 90 0 90 -280 0 -280 0 0 -90z"/>
<path d="M6654 2283 c-9 -26 -24 -64 -31 -83 -8 -19 -41 -105 -73 -190 -32
-85 -68 -179 -79 -207 l-21 -53 118 0 118 0 54 160 c29 88 56 157 59 154 3 -3
29 -74 57 -157 l51 -152 116 -3 c64 -1 117 1 117 6 0 4 -18 53 -39 108 -22 54
-63 160 -91 234 -28 74 -59 155 -69 180 l-17 45 -126 3 -126 3 -18 -48z"/>
<path d="M3070 876 c-103 -23 -183 -95 -210 -190 -18 -65 -9 -190 17 -241 60
-114 194 -167 343 -135 63 13 69 21 54 77 -6 20 -10 21 -97 16 -85 -5 -95 -3
-127 19 -111 76 -119 254 -14 334 34 26 45 29 113 29 42 0 85 -3 97 -8 18 -6
22 -2 33 34 7 23 9 45 4 49 -9 9 -116 31 -142 29 -9 0 -41 -6 -71 -13z"/>
<path d="M3517 879 c-81 -19 -140 -70 -179 -154 -32 -70 -32 -198 0 -270 43
-95 110 -142 215 -151 116 -11 215 47 264 153 28 60 34 184 13 250 -30 89
-100 153 -191 172 -57 12 -69 12 -122 0z m159 -134 c72 -81 64 -245 -15 -319
-25 -24 -40 -30 -80 -30 -88 -2 -140 59 -149 172 -8 116 27 191 102 216 55 19
104 6 142 -39z"/>
<path d="M4611 879 c-81 -16 -141 -81 -141 -154 0 -76 50 -131 153 -170 56
-21 97 -56 97 -83 0 -11 -9 -31 -21 -46 -17 -22 -28 -26 -73 -26 -30 0 -73 7
-96 15 -23 8 -43 15 -45 15 -1 0 -7 -19 -14 -42 -16 -51 -6 -61 77 -79 102
-21 208 9 254 72 44 59 28 173 -31 216 -15 12 -59 35 -96 52 -96 44 -115 75
-74 120 19 21 28 23 83 18 34 -3 71 -8 82 -12 18 -5 23 -2 28 22 4 15 9 35 12
45 9 29 -114 53 -195 37z"/>
<path d="M7457 879 c-139 -33 -216 -125 -225 -270 -8 -134 42 -230 146 -280
51 -24 169 -32 245 -16 32 7 37 12 37 35 0 15 -3 37 -6 49 -5 18 -10 20 -37
12 -43 -12 -129 -11 -164 2 -70 26 -107 88 -107 179 0 123 70 199 184 200 30
0 69 -4 87 -9 30 -9 31 -8 42 32 5 23 7 45 2 50 -8 8 -115 27 -146 26 -11 -1
-37 -5 -58 -10z"/>
<path d="M8515 879 c-87 -21 -135 -78 -135 -161 0 -71 35 -111 141 -158 86
-39 100 -51 101 -88 2 -52 -25 -72 -94 -72 -32 0 -75 7 -95 15 -19 8 -37 15
-39 15 -4 0 -24 -71 -24 -86 0 -6 26 -19 58 -28 136 -38 252 -3 293 88 47 104
0 188 -134 242 -93 36 -125 95 -72 130 25 16 121 17 157 0 18 -8 23 -1 42 61
6 19 2 23 -31 32 -64 16 -126 20 -168 10z"/>
<path d="M10640 876 c-96 -21 -155 -67 -202 -156 -33 -64 -32 -194 1 -263 61
-124 185 -177 346 -147 l67 13 -6 30 c-3 16 -6 35 -6 43 0 10 -19 12 -87 8
-79 -5 -93 -3 -133 18 -129 68 -119 296 17 354 37 16 113 18 161 5 30 -9 34
-8 42 15 6 14 10 36 10 49 0 20 -7 24 -63 34 -75 13 -76 13 -147 -3z"/>
<path d="M11485 880 c-97 -21 -153 -92 -140 -177 9 -62 47 -100 141 -144 45
-20 87 -46 93 -58 16 -30 13 -59 -9 -81 -25 -25 -119 -28 -173 -5 -46 19 -44
20 -50 -12 -3 -16 -9 -36 -12 -45 -11 -28 56 -51 150 -52 150 -2 222 61 213
186 -5 74 -26 97 -135 149 -47 22 -90 50 -99 64 -15 23 -15 27 0 50 9 14 27
27 41 31 26 7 97 1 132 -11 19 -6 23 -2 32 32 6 21 11 41 11 44 0 22 -136 42
-195 29z"/>
<path d="M3920 595 l0 -285 56 0 56 0 -4 209 -4 210 54 -102 c30 -56 59 -109
66 -117 7 -8 36 -57 65 -107 l53 -93 59 0 59 0 -2 283 -3 282 -54 3 -54 3 5
-200 4 -200 -47 87 c-25 48 -72 128 -103 177 -31 50 -60 100 -66 113 -8 20
-17 22 -75 22 l-65 0 0 -285z"/>
<path d="M4912 673 c4 -232 14 -272 77 -325 77 -66 237 -61 303 9 59 64 63 80
66 311 l4 212 -56 0 -56 0 0 -183 c0 -100 -4 -197 -10 -216 -21 -73 -88 -108
-149 -77 -57 30 -64 59 -69 279 l-4 197 -55 0 -55 0 4 -207z"/>
<path d="M5470 595 l0 -285 170 0 170 0 0 45 0 45 -115 0 -115 0 0 240 0 240
-55 0 -55 0 0 -285z"/>
<path d="M5740 830 l0 -50 80 0 80 0 0 -235 0 -235 55 0 55 0 0 235 0 235 80
0 80 0 0 50 0 50 -215 0 -215 0 0 -50z"/>
<path d="M6307 873 c-7 -13 -177 -543 -177 -553 0 -6 25 -10 54 -10 l55 0 23
78 24 77 86 3 86 3 22 -73 c12 -40 26 -77 30 -81 4 -4 32 -7 62 -5 l55 3 -92
280 -91 280 -66 3 c-37 2 -68 -1 -71 -5z"/>
<path d="M6697 873 c-4 -3 -7 -132 -7 -285 l0 -278 56 0 56 0 -3 210 -4 209
23 -47 c13 -26 67 -120 120 -209 l96 -163 58 0 58 0 0 286 0 285 -52 -3 -53
-3 2 -195 c3 -204 3 -204 -39 -125 -11 22 -59 104 -105 183 l-85 142 -57 0
c-32 0 -61 -3 -64 -7z"/>
<path d="M7700 869 c0 -5 38 -81 85 -168 l85 -158 0 -116 0 -117 55 0 55 0 0
118 0 118 90 157 c50 87 90 162 90 167 0 6 -26 10 -59 10 l-58 0 -53 -117
c-29 -65 -54 -120 -56 -122 -2 -2 -29 51 -61 117 l-57 122 -58 0 c-34 0 -58
-4 -58 -11z"/>
<path d="M8820 595 l0 -285 175 0 175 0 0 45 0 45 -120 0 -120 0 0 80 0 80
105 0 105 0 0 45 0 45 -105 0 -105 0 0 65 0 65 115 0 115 0 0 50 0 50 -170 0
-170 0 0 -285z"/>
<path d="M9268 874 c-17 -5 -18 -27 -18 -285 l0 -279 55 0 55 0 0 115 0 115
39 0 c62 0 86 -29 114 -135 l24 -90 56 -3 c32 -2 57 0 57 3 0 35 -57 207 -76
233 l-26 33 26 20 c56 44 73 131 38 198 -29 58 -78 76 -212 78 -63 1 -123 -1
-132 -3z m230 -107 c15 -14 22 -32 22 -57 0 -52 -31 -78 -103 -86 l-57 -7 0
86 0 86 28 4 c43 7 85 -3 110 -26z"/>
<path d="M9677 873 c-3 -5 36 -133 86 -285 l91 -278 63 0 c35 0 63 2 63 4 0 3
131 384 169 491 11 32 21 63 21 68 0 4 -26 7 -57 5 l-57 -3 -53 -160 c-29 -88
-58 -183 -64 -212 -7 -29 -15 -50 -19 -48 -4 3 -13 26 -19 52 -12 48 -55 193
-93 311 l-20 62 -53 0 c-30 0 -56 -3 -58 -7z"/>
<path d="M10220 595 l0 -285 55 0 55 0 0 285 0 285 -55 0 -55 0 0 -285z"/>
<path d="M10930 595 l0 -285 175 0 175 0 0 45 0 45 -120 0 -120 0 0 80 0 80
105 0 105 0 0 45 0 45 -105 0 -105 0 0 65 0 65 110 0 110 0 0 50 0 50 -165 0
-165 0 0 -285z"/>
<path d="M300 785 l0 -85 80 0 80 0 0 -205 0 -205 120 0 120 0 0 205 0 205 80
0 80 0 0 85 0 85 -280 0 -280 0 0 -85z"/>
<path d="M1017 863 c-3 -5 -39 -98 -82 -208 -42 -110 -89 -233 -106 -274 -16
-40 -29 -78 -29 -83 0 -5 51 -7 116 -6 l116 3 48 140 c26 77 52 150 57 162 7
18 18 -8 63 -140 l55 -162 118 -3 c64 -1 117 -1 117 0 0 3 -29 80 -134 353
-42 110 -79 206 -81 213 -3 9 -38 12 -129 12 -69 0 -127 -3 -129 -7z"/>
<path d="M1430 785 l0 -85 80 0 80 0 0 -205 0 -205 120 0 120 0 0 205 0 205
80 0 80 0 0 85 0 85 -280 0 -280 0 0 -85z"/>
<path d="M2134 834 c-8 -20 -35 -88 -59 -152 -24 -65 -67 -177 -94 -250 -28
-73 -51 -135 -51 -138 0 -2 52 -3 116 -2 l117 3 55 163 56 163 34 -98 c18 -54
44 -127 57 -163 l23 -65 117 -3 c109 -2 117 -1 111 15 -4 10 -31 81 -61 158
-30 77 -77 199 -103 270 l-49 130 -127 3 -127 3 -15 -37z"/>
</g>
</svg>
